<?xml version='1.0' encoding='utf-8'?>
<svg xmlns="http://www.w3.org/2000/svg" version="1.1" viewBox="0 0 1024 1024"> <path d="m1024 0v1024h-1024v-1024h1024z" fill="#fff"/> <g fill="#010101"> <path d="m781.68 286.77q30.27 40.08 32.46 90.23 0.3 7.03 0.63 21c0.45 19.56 4.44 38.86 13.68 56.4 11.55 21.93 30.67 36.91 48.01 53.64q21.17 20.43 32.32 46.35c15.01 34.88 16.09 78.71 6.94 116.32-15.86 65.19-68.03 116.94-135.16 127.79-22.41 3.62-48.01 1.94-71.38-1.42-38.41-5.51-83.13-15.74-119.83-22.15q-24.07-4.2-49.06-5.18c-55.13-2.15-108.2 16.48-159.8 33.75-22.52 7.54-46.58 13.03-68.23 15.04-40.81 3.79-81.86-4.35-117.17-25.65q-41.39-24.96-65.81-65.45c-19.03-31.55-28.09-67.41-26.75-104.43 1.31-36.37 13.51-70.15 38.52-96.71 8.27-8.79 12.76-12.49 23.13-21.4q11.84-10.17 20.39-20.82c9.2-11.46 15.2-23.9 18.05-38.54q3.45-17.73 1.05-36.03-2.08-15.96-2.85-28.97-1.47-24.84 6.99-47.59c13.22-35.51 44.77-60.86 80.01-72.6q32.85-10.95 66.34-3.53c7.27 1.61 16.96 4.47 25.41 7.54 12.72 4.62 23.98 8.24 36.79 10.5q19.05 3.38 39.18 1.18c28.33-3.09 51.59-17.76 75.83-32.89q44.38-27.72 96.11-29.29c60.29-1.82 117.95 24.9 154.2 72.91z"/> <path d="m405.16 231.41c5.48-8.97 17.78-11.47 27.69-10.51 11.13 1.06 31.53 9.07 28.41 24.08-2.63 12.64-23.55 13.28-33.9 12.4q-10.22-0.86-17.91-6.01c-6.6-4.41-8.49-13.09-4.29-19.96z"/> <path d="m180.83 444.47c-2.57 10.06-10.09 25.11-22.7 24.06-5.77-0.48-9.79-4.75-11.09-10.27-1.66-7-0.33-15.02 1.46-22.04s4.46-14.69 9.28-20.04c3.78-4.22 9.36-6.05 14.65-3.7 11.58 5.12 10.97 21.93 8.4 31.99z"/> <path d="m564.57 809.61c-1.17 6.44-7.01 11.61-12.38 14.82-14.09 8.43-34.27 18.05-49.68 9.04-8.11-4.74-11.07-15.19-7.22-23.64 8.57-18.78 38.15-20.72 54.99-16.48 7.6 1.92 15.91 7.31 14.29 16.26z"/> </g> <g fill="#fff"> <path d="m458.71 239.93c2.15 9.48-8.6 13.53-15.71 14.54-9.72 1.39-21.7 0.84-30.33-4.12-7.21-4.15-9.53-12.74-3.88-19.35q3.81-4.47 11-6.5c11.69-3.31 26.35 0.19 35.19 8.72q2.83 2.73 3.73 6.71z"/> <path d="m178.21 443.84c-2.19 8.53-9.1 23.17-20.14 22.06-12.7-1.28-8.99-21.31-7-29.06 2-7.74 8.44-27.06 20.18-22.05 10.2 4.37 9.16 20.53 6.96 29.05z"/> <path d="m270.93 562.52a0.24 0.24 0 0 1 0.22 0.33c-1.58 3.7-2.51 5.7-3.4 8.58q-8.63 27.94-14.89 58.44a1.28 1.28 0 0 0 0.85 1.47l2.63 0.88a0.83 0.83 0 0 1 0.56 0.96q-3.91 19.35-5.43 27.81c-2.87 15.9-5.62 34.31 5.22 48.12 6.22 7.93 15.38 12.94 25.7 13.53q2.29 0.14 4.28 0.31a0.57 0.57 0 0 1 0.52 0.62v0.04a0.6 0.59 3.9 0 1-0.59 0.51l-65.3-0.08a0.35 0.34-2.7 0 1-0.35-0.31q-6.61-61.34-11.03-103.22-1.68-15.98-3.56-29.82-1.34-9.93 4.61-17.69 7.96-10.39 22.03-10.45 5.13-0.03 37.93-0.03z"/> <path d="m748.35 711.14h-51.31a1.1 1.1 0 0 1-1.05-1.45l25.84-77.41a1.1 1.1 0 0 1 1.04-0.75h51.31a1.1 1.1 0 0 1 1.05 1.45l-25.84 77.41a1.1 1.1 0 0 1-1.04 0.75z"/> <path d="m850.56 668.71a0.64 0.64 0 0 1-0.64 0.64h-59.46a0.64 0.64 0 0 1-0.64-0.64v-6.68a0.64 0.64 0 0 1 0.64-0.64h59.46a0.64 0.64 0 0 1 0.64 0.64v6.68z"/> <path d="m798.33 713.67-4.97-41.28a0.7 0.7 0 0 1 0.7-0.78h52.15a0.7 0.7 0 0 1 0.7 0.78l-4.88 41.28a0.7 0.7 0 0 1-0.69 0.62h-42.32a0.7 0.7 0 0 1-0.69-0.62z"/> <path d="m861.65 692.87c-0.94 8-7.96 12.81-15.92 12.09a0.2 0.19 7.2 0 1-0.18-0.22l0.45-3.81a0.22 0.21 4.5 0 1 0.23-0.19c5.74 0.46 10.44-2.67 11.12-8.38 0.67-5.71-3.17-9.85-8.87-10.74a0.22 0.21 9 0 1-0.17-0.23l0.44-3.81a0.2 0.19 6.3 0 1 0.23-0.18c7.91 1.15 13.61 7.47 12.67 15.47z"/> <path d="m159.62 726.57h720.09a0.58 0.58 0 0 1 0.58 0.58v9.61a0.58 0.58 0 0 1-0.14 0.37l-8.38 9.95a0.58 0.58 0 0 1-0.44 0.21h-711.71a0.58 0.58 0 0 1-0.58-0.58v-19.56a0.58 0.58 0 0 1 0.58-0.58z"/> <path d="m469.72 773.83a0.12 0.12 0 0 1 0.03 0.23q-27.97 6.3-57.93 16.29-20.12 6.71-39.41 12.8c-32.74 10.33-65.26 15.64-99.41 12.53q-39.11-3.58-72.97-23.06a0.87 0.85 15.3 0 1-0.43-0.74v-17.62a0.44 0.43-0 0 1 0.44-0.43h269.68z"/> <path d="m599.68 773.91a0.04 0.04 0 0 1 0.02-0.08h236.36a0.74 0.74 0 0 1 0.44 1.34q-2.55 1.9-9.13 5.23-32.83 16.62-69.14 17.3-22.99 0.44-46.7-2.98c-37.31-5.38-86.93-16.17-110.03-20.23q-1.12-0.2-1.82-0.58z"/> <path d="m562.13 808.74c-1.95 11.89-25.57 21.57-35.53 24.29q-9.15 2.51-17.02 0.63c-14.79-3.52-17.69-19.87-6.72-29.58 11.09-9.81 27.79-11.14 42-9.18 6.58 0.91 18.76 4.75 17.27 13.84z"/> </g> <g fill="#bbe9f2"> <path d="m825.38 638.33q0-0.01-0.33-4.07-0.79-9.78-5.29-17.5c-3.57-6.12-8.34-9.53-14.65-12.14a1.89 1.89 0 0 0-2.21 0.57c-8.02 10.06-7.92 22.39-3.34 34.23a0.28 0.27 1.4 0 1-0.37 0.35q-5.05-2.26-10.91-0.79a1.52 1.52 0 0 0-1.13 1.3q-1.31 11.55 7.52 18.27a0.33 0.32 67.5 0 1-0.24 0.58q-3.37-0.42-6.08 0.18a1.25 1.24 83.2 0 0-0.97 1.24q0.14 7.75 0.08 8.95-0.14 2.68 2.61 2.39a0.9 0.89 83.8 0 1 0.98 0.79l4.93 40.99a0.62 0.61 86.6 0 1-0.6 0.69h-9.72a0.25 0.24-64.5 0 0-0.16 0.06q-2.43 1.99 3.79 9.61a0.2 0.19-20 0 1-0.15 0.32h-6.1a0.34 0.34 0 0 1-0.32-0.23q-6.77-21.17-13.84-45.22c-0.79-2.68-0.32-3.21 0.67-6.12q8.25-24.22 13.23-40.01c1.74-5.53-1.49-9.2-7.18-9.16q-7.04 0.05-48.31 0.17-5.05 0.02-6.92 5.33-3.84 10.96-3.96 11.33-9.24 28.78-26.1 79.85-0.34 1.03 0.02 3.38a0.47 0.47 0 0 1-0.47 0.54h-16.73a0.41 0.41 0 0 1-0.34-0.64q2.46-3.62 1.61-7.61a0.76 0.76 0 0 1 0.36-0.82q1.81-1.05 3.55-5.33 14.89-36.53 30.59-76.92 1.85-4.76 10.34-25.15a3.36 3.28-30.3 0 0 0.24-0.87q0.55-4.55-3-6.57c-1.81-1.03-5.22-0.78-7.23-0.77q-53.01 0.04-122.25-0.08-7.73-0.02-10.02 0.19c-4.77 0.44-6.9 3.3-8.81 7.95q-16.42 39.9-24.3 59.28a1.47 1.47 0 0 1-1.1 0.88l-19.41 3.4a5.65 5.42-46.2 0 1-1.48 0.06l-42.93-4.2a1.3 1.29 84.3 0 1-1.12-0.92l-10.75-35.56a1.49 1.48 75.3 0 1 1.09-1.88q1.31-0.3 1.79-0.79a1.22 1.21-30.9 0 0 0.3-1.16c-5.31-19.3-11.29-35.47-17.63-55.32q-1.83-5.71-6.54-14.24-5.41-9.82-14.62-16.35-11.91-8.46-25.57-13.31a1.03 0.91 71.6 0 1-0.33-0.19l-7.79-6.56a0.9 0.9 0 0 1-0.32-0.69v-9.47a0.52 0.52 0 0 1 0.54-0.52c21.83 0.84 37.52-17.28 42.41-36.91q3.7-14.86 4.55-30.65 0.23-4.26 0.5-8.24a1.13 1.11 73 0 1 0.43-0.82q3.53-2.74 6.08-7.2 10.99-19.27 4.77-39.94-4.9-16.3-20.62-24.15c-3.75-1.87-8-7.16-11.57-9.56q-12.16-8.19-27.04-8.65-6.07-0.19-7.04-0.26c-3.16-0.23-6.62-0.67-9.63-0.54q-19.07 0.82-35.8 10.05a1.11 1.11 0 0 1-1.29-0.15c-4.25-3.87-10.21-6.83-15.9-7.9-20.42-3.85-38.85 6.8-48.47 24.75q-3.3 6.17-5.31 16.32c-6.83 34.51 19.35 64.09 9.96 98.57-3.9 14.29-15.38 25.26-30.2 27.24a1.32 1.32 0 0 0-0.68 2.31q10.62 9.02 23.41 12.36c31.21 8.13 58.27-13.31 62.24-44.06a0.28 0.28 0 0 1 0.45-0.19l7.4 5.61a0.31 0.31 0 0 1 0.13 0.27l-1.18 24.24a0.99 0.99 0 0 1-0.58 0.85q-9.46 4.34-17.65 11.83a3.26 3.17-74.1 0 1-1.18 0.68q-15.81 4.98-23.89 8.15-19.21 7.53-29.31 25.52a0.78 0.77 14.3 0 1-0.68 0.4q-28.03-0.22-58.68 0.37-5.93 0.12-10.92 1.35c-11.86 2.94-20.85 12.04-22.63 24.25q-0.55 3.71 0.49 11.08 0.91 6.42 2.44 20.72 2.33 21.66 11.54 105.78a0.39 0.39 0 0 1-0.39 0.43h-36.61a0.91 0.9 0 0 0-0.91 0.9v23.36a1.44 1.44 0 0 0 1.44 1.44h32a0.6 0.6 0 0 1 0.6 0.6v22.53a0.96 0.96 0 0 0 0.96 0.96h4.92a0.61 0.61 0 0 1 0.61 0.61v15.88a0.46 0.45 13.4 0 1-0.66 0.4q-3.44-1.75-10.78-6.89c-50.43-35.3-80.31-90.97-80.74-152.25-0.28-40.02 12.33-77.63 40.6-106.18q9.34-9.43 21.44-19.53c16.77-13.99 30.31-31.2 36.49-52.21 4-13.61 4.63-28.84 2.98-43.05-1.99-17.1-3.19-24.64-3.27-38.04-0.08-15.58 3.68-32.7 10.49-46.76 16.94-34.95 51.52-58.53 89.07-66.7 22.7-4.93 45.99-2.52 67.62 5.11q18.3 6.45 29.12 9.54c31.76 9.04 63.55 8.09 92.94-5.43 9.03-4.16 18.44-9.2 27.19-14.7 7.31-4.59 15.9-10.12 24.21-14.58q46.3-24.83 98.4-22.38c38.46 1.81 73.93 15.01 104.47 38.42 37.71 28.9 62.02 71.73 64.56 119.49 0.68 12.8 0.51 28.03 2.41 42 2.77 20.25 10.15 38.78 22.52 54.79 10.82 14.01 26.09 26.99 37.08 37.39q21.41 20.25 32.58 45.68c14.71 33.45 16.27 75.34 8.25 111.56q-8.14 36.77-30.39 66.65a0.63 0.63 0 0 1-1.13-0.37v-6.95a1.19 1.18-0 0 0-1.19-1.18h-30.22a0.41 0.41 0 0 1-0.34-0.64q2.5-3.68 3.69-7.81a0.94 0.94 0 0 0-0.9-1.2h-8.23a1.04 1.04 0 0 1-1.04-1.14l0.49-4.98a1.27 1.27 0 0 1 1.44-1.13q1.54 0.22 4.35-0.3c7.39-1.35 12.98-6.94 13.47-14.46 0.46-7.05-3.39-14.01-10.23-16.31q-0.67-0.23-3.27-0.76a1.99 1.99 0 0 1-0.26-3.83q0.04-0.01 1.2 0.02a1.02 1.02 0 0 0 1.05-0.96l0.53-9.69a1.64 1.63-88.3 0 0-1.63-1.73h-13.18a0.35 0.35 0 0 1-0.24-0.61c8.4-7.78 12.5-18.41 7.75-29.38a2.24 2.23-6.3 0 0-1.64-1.31c-5.85-1.1-12.56 3.06-16.04 7.44q-2.02 2.53-2.32 3.11a0.26 0.26 0 0 1-0.48-0.07z"/> <path d="m848.08 684.77a0.7 0.7 0 0 1 0.79-0.59l0.14 0.02a7.03 6.9-82 0 1 5.86 7.92l-0.03 0.22a7.03 6.9-82 0 1-7.81 6l-0.14-0.02a0.7 0.7 0 0 1-0.6-0.79l1.79-12.76z"/> <path d="m760.8 699.39q0.23 0.01 0.29 0.21 2.53 10.03 7.18 24.22a0.35 0.35 0 0 1-0.32 0.45q-3.38 0.1-7.55 0.03-4.17-0.06-7.54-0.27a0.35 0.35 0 0 1-0.31-0.46q5.1-14.03 7.95-23.98 0.06-0.2 0.3-0.2z"/> <path d="m496.75 712.75 2.39-2.03a1.19 1.17 18.9 0 1 0.5-0.24q12.72-2.71 25.79-6.2 0.53-0.14 2.15 0.46a0.5 0.49 25.9 0 1 0.25 0.72q-1.9 3.11-2.47 7.09a0.7 0.7 0 0 1-0.69 0.6h-27.77a0.23 0.23 0 0 1-0.15-0.4z"/> <path d="m454.79 712.86a0.25 0.25 0 0 1-0.07 0.49h-14.85a0.56 0.55 0 0 1-0.56-0.55v-4.55a1.24 1.24 0 0 1 0.51-1q1.45-1.05 2.67-1.01a1.9 1.89-23.6 0 1 1.13 0.44q4.9 4.14 11.17 6.18z"/> <path d="m842.92 770.13v-20.05a0.44 0.44 0 0 1 0.44-0.44h24.89a0.37 0.36 22.7 0 1 0.26 0.62q-11.53 11.44-24.51 20.44a0.69 0.69 0 0 1-1.08-0.57z"/> </g> <g fill="#49a0e0"> <path d="m380 553.85c-3.6-0.12-6.72 1.68-10.31 4.1q-6.38 4.3-13.84 10.57a0.33 0.32-41.4 0 1-0.43-0.02q-14.61-14.6-24.04-32.36-1.62-3.04-2.81-8.4a0.89 0.87 64.1 0 1 0.29-0.87q7.34-6.13 15.4-10.5a0.62 0.62 0 0 1 0.91 0.47q0.29 2.42 0.86 3.86c1.37 3.46 5.45 8.13 8.82 11.33q11.76 11.16 25.29 21.43a0.22 0.22 0 0 1-0.14 0.39z"/> <path d="m407.47 559.75c-5.75-3.4-10.73-7.62-17.24-3.83a0.31 0.3-2.5 0 1-0.43-0.39c4.89-10.55 8.64-19.29 7.76-31.21a0.46 0.45 16.4 0 1 0.73-0.39q2.97 2.19 6.06 5.75 1.26 1.45 2.18 5.58 2.59 11.61 1.65 24.12a0.47 0.47 0 0 1-0.71 0.37z"/> <path d="m307.29 670.6 4.53-24.85a0.51 0.51 0 0 1 0.73-0.37q0.46 0.22 0.99 0.22a0.89 0.89 0 0 0 0.85-0.62q1.37-4.28 2.74-9.35 4.22-15.69 9.14-36.9a0.94 0.93 11.8 0 0-0.74-1.13l-0.39-0.07a0.82 0.82 0 0 0-0.94 0.6l-10.72 43.59a1.53 1.53 0 0 1-1.83 1.12q-42.39-9.69-45.34-10.42-3.5-0.86-10.39-2.89a0.88 0.87 14.5 0 1-0.61-1.03q5.19-22.95 11.42-45.75c4.83-17.7 12.03-33.67 28.15-42.4q12.82-6.94 30.9-11.64a0.63 0.63 0 0 1 0.76 0.41c5.47 16.25 16.65 29.66 27.95 41.93a1.31 1.31 0 0 0 1.83 0.09c7-6.16 14.47-12.46 23.29-15.13a3.59 3.58 55.1 0 1 3.21 0.58l4.69 3.55a0.84 0.82 6.4 0 1 0.27 0.33q1.6 3.41 1.86 5.18 1.9 12.64 4.05 31.38a0.95 0.95 0 0 0 1.11 0.82l0.35-0.06a0.63 0.62 83.2 0 0 0.51-0.65q-1.23-20.11-5.73-38.36a0.63 0.63 0 0 1 0.31-0.71q2.49-1.32 5.33-1.55c3.44-0.27 9.61 4.27 12.63 6.55a1.16 1.16 0 0 0 1.83-0.68c0.48-2.27 0.31-5.35 0.35-7.05q0.31-12.73-2.11-24.03a0.28 0.28 0 0 1 0.38-0.31c5.92 2.54 11.68 4.91 16.14 7.82q7.55 4.92 14.1 12.06c6.98 7.61 9.97 17.55 13.35 26.94q8.23 22.92 15.45 47.61a1.3 1.29 70.2 0 1-0.73 1.56l-18.51 7.96a0.38 0.38 0 0 1-0.52-0.44q3.18-12.76-0.3-25.12-0.74-2.66-5.38-15.32-2.72-7.4-5.75-15.14a0.87 0.86-28.8 0 0-1.31-0.38l-0.08 0.06a1.49 1.49 0 0 0-0.52 1.74q4.67 12.38 8.56 21.98c7.28 17.94 3.42 34.95-4.49 52.1q-0.94 2.04-1.28 5.6-0.61 6.21-0.72 13.07a1.1 1.09 85.3 0 1-0.9 1.07l-16.89 2.96a8.27 8.17-48.1 0 1-1.85 0.11l-109.28-6.06a0.49 0.49 0 0 1-0.45-0.58z"/> <path d="m423.93 724.22-132.69-0.2a0.61 0.61 0 0 1-0.61-0.6v-0.02a0.58 0.58 0 0 1 0.54-0.59c6.57-0.46 12.84-0.55 19.75-1.17q49.74-4.49 100.46-10.51a9.16 8.96-40.9 0 1 3.27 0.2q10.69 2.66 21.95-2.38a0.38 0.37 78 0 1 0.53 0.35v3.59a0.63 0.63 0 0 1-0.6 0.63q-4.03 0.15-9.96-0.07-2.66-0.09-3.62 2.24-1.78 4.36 1.19 8.1a0.27 0.26-19.3 0 1-0.21 0.43z"/> </g> <g fill="#834f37"> <path d="m381.39 345.78q-16.94 4.67-29.83 17.32c-12.7 12.46-19.08 31.76-20.27 49.2a1.35 1.34 85.7 0 1-1.04 1.22c-8.87 2.05-15.09 11.28-17.32 19.52a0.34 0.33-44 0 1-0.65-0.01q-2.38-10.42-1.03-21.33c1.65-13.43 5.14-25.86 12.86-36.42q15.44-21.12 42.46-28 7.2-1.84 14.77-1.87a0.19 0.19 0 0 1 0.05 0.37z"/> <path d="m342.15 354.66a0.13 0.12 48.5 0 1-0.01 0.2q-17.2 10.55-26.12 29.69-5.36 11.5-6.57 22.04c-1.57 13.71-0.52 28.08 3.49 41.28 1.49 4.93 3.42 9.57 7.34 14.61q1.66 2.15 6.68 9.04 2.78 3.82 9.19 8.67a0.88 0.86 22.1 0 1 0.34 0.78q-0.88 7.67-1.26 8.99-5.81 19.97-22.93 30.29c-15.36 9.26-35.19 7.03-50.13-1.98q-2.75-1.67-5.03-3.7a0.56 0.56 0 0 1 0.25-0.96c5.83-1.29 11.37-3.51 15.88-7.67 6.64-6.14 12.3-14.93 13.93-24.06q1.79-9.98 0.77-21.71c-0.93-10.65-4.96-21.43-7.85-32.88q-3.23-12.79-3.69-15.48c-3.4-20.09 0.33-39.11 14.86-53.82 6.56-6.65 16.28-10.18 25.49-11.22q14.29-1.62 25.37 7.89z"/> <path d="m446.24 429.66a0.47 0.47 0 0 1-0.57-0.44c-0.3-7.91 0.1-13.12-1.4-19.05-2.74-10.77-10.21-21.78-21.19-25.33a0.65 0.65 0 0 1-0.42-0.8c1.44-4.89 2.84-8.86 2.5-13.51a0.86 0.84 18.7 0 0-0.31-0.61q-0.64-0.54-1.31-0.27a0.86 0.85-11.3 0 0-0.52 0.77q-0.05 6.05-2.26 11.33-11.11 26.47-37.9 37.38-12.67 5.17-26.61 6.46a0.91 0.89-20.3 0 1-0.82-0.37q-4.64-6.63-11.76-10.49a0.75 0.74 18.5 0 1-0.39-0.77q1.02-7.15 3.19-15c3.94-14.3 13.77-29.47 26.64-37.05 17.25-10.16 42.84-14.26 59.45 0.21q2.05 1.78 5.57 3.98c8.26 5.16 14.39 12.53 16.91 22.35q3.74 14.51-1.81 29.58-2.04 5.54-6 10.92-0.43 0.58-0.99 0.71z"/> <path d="m326.03 466.36c4.6 2.38 9.19 3.68 14.43 2.61a2.11 2.11 0 0 1 2.27 1.05q3.44 6.24 4.01 13.59a0.54 0.54 0 0 1-0.81 0.5q-12.21-7.23-20.09-17.52a0.15 0.15 0 0 1 0.19-0.23z"/> </g> <g fill="#f9b996"> <path d="m347.19 474.76a0.19 0.19 0 0 1 0.31-0.21c9.29 8.67 20.13 12.83 32.51 15.4a0.94 0.93 1.4 0 1 0.74 0.77q0.53 3.35 2.69 4.31c3.71 1.65 12.23 4.03 15.48 0.7q2.24-2.29 1.58-5.74-0.83-4.37-5.55-5.21c-5.26-0.93-12.41-2.8-13.84 2.97a0.4 0.4 0 0 1-0.48 0.3q-4.27-1.01-9.39-2.55c-9.53-2.84-20.66-8.98-26.44-17.38a0.4 0.39 58.1 0 1 0.13-0.57c13.82-7.75 17.76-24.61 12.18-38.99a0.45 0.45 0 0 1 0.36-0.61c13.85-1.88 28.11-5.72 39.53-13.5q15.47-10.54 24.25-27.18a0.48 0.48 0 0 1 0.59-0.22q9.6 3.77 15.2 11.86c5.69 8.21 6.53 20.5 6.22 31.37q-0.6 21.63-4.16 38.82-2.31 11.18-9.13 21.28c-8.51 12.62-21.63 19.06-36.87 17.21q-15.18-1.84-27.13-10.05a0.73 0.73 0 0 0-0.98 1.07c4.71 5.7 8.22 10.15 14.38 14.05q7.21 4.56 15.62 4.32a0.37 0.37 0 0 1 0.38 0.38q-0.08 5.3 0 9.1c0.21 10.13-3.21 19.96-8.4 28.97a0.53 0.53 0 0 1-0.82 0.13c-7.41-6.51-14.56-11.63-18.11-14.6q-7.26-6.04-15.38-14.62c-2.14-2.26-5.21-5.6-5.07-8.85q0.08-1.93 1.6-30.23 0.36-6.65-2-12.5z"/> <path d="m475.2 666.58-7.76-0.76a1.29 1.29 0 0 0-1.39 1.02l-0.07 0.36a1.11 1.1 2.2 0 0 1.09 1.17q3.17 0.08 5.68 0.34 3.13 0.33 47.18 4.63 3.02 0.3 5.85-0.26 8.07-1.58 15.89-2.79a0.32 0.32 0 0 1 0.34 0.44l-7.08 16.7a1.26 1.26 0 0 1-1.29 0.75q-0.07-0.01-1.03-0.39a1.11 1.07 87 0 0-1.34 1.54q0.45 0.91 1.67 1.12a0.82 0.81 16.1 0 1 0.62 1.12l-4.48 10.56a0.55 0.55 0 0 1-0.71 0.29c-3.75-1.58-7.05-4.33-9.98-7.23a1.22 1.21-49.1 0 0-1.82 0.14l-0.16 0.21a1.19 1.18 37.3 0 0 0.23 1.66l6.42 4.86a0.24 0.24 0 0 1-0.09 0.43l-23.18 5.75a1.1 1.1 0 0 1-1.15-0.41l-1.22-1.61a0.41 0.41 0 0 1 0.31-0.65c10.58-0.42 1.49-10.08-1.03-13.05q-8.37-9.85-15.57-14.62-6.34-4.19-18.32-7.24-2.36-0.6-9.61 0.31-7.15 0.89-13.55 2.48a0.71 0.71 0 0 1-0.88-0.74l1.14-14.18a1.46 1.35 58.8 0 1 0.09-0.44l6.97-19.38a1.7 1.69 88.4 0 1 0.92-0.98l16.46-7.08a0.45 0.45 0 0 1 0.61 0.28l10.63 35.18a0.37 0.37 0 0 1-0.39 0.47z"/> <path d="m492.46 711.89q-8.97-19.39-27.95-28.82a1.19 1.19 0 0 0-1.7 0.85l-0.08 0.48a0.99 0.99 0 0 0 0.56 1.08q11.47 5.17 17.06 12.19 4.96 6.24 8.83 12.74a0.75 0.74-30.5 0 1-0.27 1.02c-1.74 1.02-3.17 1.38-5.11-0.08q-2.17-1.63-6.88-7.03-7.99-9.16-19.85-15.07a0.94 0.94 0 0 0-1.35 0.67l-0.06 0.35a1.15 1.14 18.9 0 0 0.6 1.22q9.66 4.92 16.27 11.48 1.19 1.18 4.32 5.6a1.04 1.04 0 0 1 0.11 1q-0.57 1.33-2.03 2.34a0.92 0.92 0 0 1-0.91 0.08q-2.45-1.12-3.23-1.82-8.47-7.68-19.39-11.26a1.88 1.86 38.4 0 0-1.57 0.17q-4.69 2.82-8.79 4.94c-7.68 3.99-13.66 6.86-21.33 5.8q-1.84-0.25-5.92-0.84a8.3 8.02 44.3 0 0-2.31-0.01q-2.55 0.37-65.89 7.13-25.83 2.76-54.08 4.49c-7.77 0.47-16.4-0.44-23.25-4.58-14.68-8.88-18.83-24.11-16.52-40.53q2.86-20.33 7.35-42.08a0.59 0.59 0 0 1 0.74-0.45c8.77 2.43 16.06 4.42 25.07 6.34q17.29 3.69 24.23 5.35a0.54 0.54 0 0 1 0.41 0.63l-4.59 25.21a0.68 0.68 0 0 1-0.7 0.55l-12.28-0.68a1.03 1.03 0 0 0-1.09 0.97l-0.02 0.36a0.87 0.87 0 0 0 0.83 0.92l126.27 7a2.44 2.23 38.1 0 0 0.53-0.04q16.43-3.45 34.52-6.07c8.42-1.22 13.52 0.2 21.68 3.58q7.82 3.23 13.91 9.87c3.1 3.37 8.55 9.12 11.37 14.04a1.4 1.4 0 0 1-0.94 2.07l-1.37 0.28a2 1.99-20.3 0 1-2.14-0.98c-6.09-10.86-13.69-18.7-24.84-24.03a1.14 1.13 17.7 0 0-1.6 0.82l-0.08 0.43a1.01 1.01 0 0 0 0.61 1.12q11.31 4.56 18.67 15.03 4.74 6.74 8.39 13.47a0.38 0.38 0 0 1-0.14 0.51l-3.89 2.24a0.13 0.13 0 0 1-0.18-0.05z"/> <path d="m469.7 712.23a0.22 0.21-24.7 0 1-0.14 0.37q-13.56 0.77-23.99-7.57a0.68 0.68 0 0 1 0.16-1.16l5.53-2.38a1.13 1.12-46.9 0 1 0.83-0.03q10.15 3.65 17.61 10.77z"/> <path d="m480.48 712.69q-1.3 0.07-1.6-0.09a0.86 0.76-26.4 0 1 0.59-1.47q0.66 0.04 1.3 1.01a0.36 0.36 0 0 1-0.29 0.55z"/> </g> <g fill="#c8c8c8"> <path d="m416.52 351.25q-6.97-1.31-14.1-0.82-32.6 2.22-49.64 28.21c-6.46 9.85-10.08 22.77-11.56 34.58a0.32 0.32 0 0 1-0.35 0.28l-6.95-0.68a0.26 0.26 0 0 1-0.24-0.28q1.6-25.57 16.46-43.89c6.92-8.53 16.62-15.34 26.96-18.78 5.32-1.77 12.13-3.76 18.01-3.82q11.56-0.13 21.48 4.98a0.12 0.12 0 0 1-0.07 0.22z"/> <path d="m332.79 420.46a20.75 16.44-93.1 0 1 17.538 19.83 20.75 16.44-93.1 0 1-15.294 21.609 20.75 16.44-93.1 0 1-17.538-19.83 20.75 16.44-93.1 0 1 15.294-21.609z"/> <path d="m530.75 713.19-2.88-0.52a0.27 0.26 15.8 0 1-0.2-0.35q0.67-1.73 4.5-10.98 24.55-59.38 37.9-92.46c1.47-3.65 3.72-6.89 7.57-7.44a0.58 0.57-75.2 0 1 0.53 0.92c-1.49 1.93-2.44 3.31-3.36 5.6q-16.09 39.95-31.09 74.75c-3.65 8.47-8.14 20.2-12.68 30.33a0.27 0.26-71.5 0 1-0.29 0.15z"/> <path d="m534.59 712.62q0.41-2 2.57-7.18 15.51-37.28 41.02-98.98 0.98-2.39 3.34-3.71 1.76-0.98 4.89-0.98 64.21 0.04 123.34 0.08c3.58 0 8.75-0.01 7.08 5.17q-0.48 1.49-1.07 2.96c-13.78 34.02-28.09 71.17-40.84 101.94-0.71 1.72-2.31 1.55-4.45 1.55q-91.86 0.08-117.72 0.05-16.63-0.01-17.74-0.26a0.54 0.54 0 0 1-0.42-0.64z"/> <path d="m723.67 629.34a0.57 0.57 0 0 1-0.37-1.01l1.88-1.59a3.01 3 24.9 0 1 1.94-0.71h48.59a1.87 1.86 90 0 1 1.86 1.87v0.45a0.99 0.98-90 0 1-0.98 0.99h-52.92z"/> <path d="m779.69 627.8a0.41 0.41 0 0 1 0.8-0.09q0.81 2.2-0.05 4.96-3.7 11.81-10.44 31.41c-2.67 7.76-5.22 17.17-8.41 25.35-4.19 10.75-7.21 23.73-11.13 33.27a1.36 1.35 12.4 0 1-1.33 0.84l-0.79-0.04a0.58 0.57-79.2 0 1-0.51-0.76l29.06-87.06a0.35 0.23-34.1 0 1 0.04-0.1q2.34-4.54 2.76-7.78z"/> <path d="m779.6 723.9h-9.1a0.33 0.33 0 0 1-0.32-0.24l-8.06-28.75a0.33 0.33 0 0 1 0-0.2l4.45-13.32a0.33 0.33 0 0 1 0.63 0.01l12.71 42.07a0.33 0.33 0 0 1-0.31 0.43z"/> <path d="m748.17 714.27q-0.95 4.65-2.95 7.92a2.67 2.57-88.3 0 1-0.88 0.86q-1.36 0.79-3.84 0.79-17.63 0.01-45.97 0.15a2.37 2.37 0 0 1-2.26-3.12l2.28-6.83a0.84 0.83-80.8 0 1 0.79-0.58h52.17a0.67 0.67 0 0 1 0.66 0.81z"/> <path d="m526.71 715.31a1.98 1.98 0 0 1 1.99 1.97v0.74a6.22 5.84-0.2 0 1-6.2 5.86l-91.79 0.32a6.22 5.84-0.2 0 1-6.25-5.82v-0.74a1.98 1.98 0 0 1 1.98-1.98l100.27-0.35z"/> <path d="m529.65 723.26c1.56-2.54 2.21-3.48 2.17-6.77a0.66 0.65 89.6 0 1 0.65-0.67h137.27a2.67 2.67 0 0 1 2.5 3.62l-0.21 0.57a6.05 6.05 0 0 1-5.66 3.91h-136.35a0.43 0.43 0 0 1-0.37-0.66z"/> <path d="m819.75 716.63q10.22 0.01 31.68 0.21a0.43 0.43 0 0 1 0.4 0.59c-0.95 2.53-3.28 6.11-6.58 6.21q-11.23 0.37-25.51 0.35-14.28-0.01-25.51-0.38c-3.3-0.11-5.62-3.7-6.57-6.23a0.43 0.43 0 0 1 0.4-0.59q21.46-0.17 31.69-0.16z"/> </g> <g fill="#53ce85"> <path d="m806.7 607.96a0.2 0.2 0 0 1 0.29-0.23c13.08 7.11 15.65 19.57 15.87 33.58a4.9 4.79-34.3 0 1-0.41 2.04q-3.04 6.87-2.76 14.53a0.31 0.3 37.2 0 1-0.6 0.08l-12.39-50z"/> <path d="m804.37 608.7 12.28 49.57a0.4 0.4 0 0 1-0.37 0.5l-1.94 0.1a0.81 0.8-7.8 0 1-0.82-0.62q-2.24-9.77-10.2-16.62a2.35 2.29 10 0 1-0.64-0.89c-4.36-10.82-6.27-22.25 0.76-32.22a0.52 0.52 0 0 1 0.93 0.18z"/> <path d="m842.13 630.62q-0.79 2.29-2.14 4.13-10.09 13.7-16.15 23.83a0.94 0.94 0 0 1-1.75-0.46q-0.31-13.99 10.28-23.54 4.92-4.43 9.35-4.52a0.43 0.42 9.1 0 1 0.41 0.56z"/> <path d="m844.05 632.87a0.39 0.39 0 0 1 0.7 0.11c2.38 9.24-1.33 16.78-7.93 23.6q-1.67 1.73-2.15 1.94a3.72 3.72 0 0 1-1.2 0.24l-5.85 0.27a0.39 0.39 0 0 1-0.35-0.58c5.25-9.32 11.22-16.98 16.78-25.58z"/> <path d="m810.83 658.28a0.62 0.62 0 0 1-1.05 0.57l-17.47-17.46a0.16 0.15-22.8 0 1 0.11-0.26c10.03-0.02 16.45 8.23 18.41 17.15z"/> <path d="m789.52 642.77a0.32 0.32 0 0 1 0.54-0.22l16.23 16.23a0.23 0.22-18.9 0 1-0.19 0.38c-3.78-0.52-6.82 0.23-10.4-2.68q-6.49-5.26-6.18-13.71z"/> </g> <g fill="#e4e8e9"> <path d="m218.6 723.7a0.39 0.38 86.7 0 1-0.38 0.43h-20.85a0.62 0.61 86.9 0 1-0.61-0.55q-5.29-50.97-14.43-132.58c-0.35-3.2 0.42-7.53 1.68-10.66 4.31-10.72 13.49-16.18 24.81-17.06q4.63-0.35 8.9-0.46a0.32 0.32 0 0 1 0.18 0.6q-11.42 6.91-13.8 19.45-0.75 3.91 0.32 11.27 1.2 8.29 2.98 24.94 10.35 97.02 11.2 104.62z"/> <path d="m193.13 750.12a0.53 0.53 0 0 1 0.53-0.53h646.68a0.4 0.39-0 0 1 0.4 0.39v20.38a1.02 1.02 0 0 1-1.02 1.02q-70.14 0.1-248.87 0.05-8.07 0-11.65-0.62c-20.46-3.53-41.76-4.26-62.54-3.41-11.9 0.48-23.53 3.72-35.73 3.79-72.15 0.41-152.8 0.24-273.18 0.27q-6.45 0-14.15-0.11a0.48 0.48 0 0 1-0.47-0.48v-20.75z"/> </g> <path d="m638.56 652.12a12.68 9.7-46.1 0 1-1.803 15.863 12.68 9.7-46.1 0 1-15.782 2.4106 12.68 9.7-46.1 0 1 1.803-15.863 12.68 9.7-46.1 0 1 15.782-2.4106z" fill="#fff"/> <g fill="#010101"> <path d="m654.32 344.78c-0.2 3.78 0.29 7.67-2.58 8.67-3 1.04-5.47 1.38-9.17 1.92a1.2 1.18-81.9 0 0-0.93 0.71l-3.09 7.29a0.75 0.72-49.4 0 0 0.04 0.65q1.8 2.97 4.07 7.13 1.36 2.48-0.32 4.16-2.74 2.73-8.31 7.79-3.11 2.82-6.16 0.32-0.34-0.27-5.79-4.17a0.92 0.89 53.3 0 0-0.79-0.13l-7.26 2.2a0.95 0.95 0 0 0-0.66 0.71q-0.75 3.62-2.02 7.77-0.98 3.19-4.07 3.07-10.8-0.42-11.54-0.47a3.02 3.02 0 0 1-2.43-1.56c-1.6-2.92-1.67-6.4-2.29-9.8a0.94 0.93 6.7 0 0-0.55-0.69l-7.65-3.24a0.81 0.8 40.7 0 0-0.73 0.05q-2.74 1.71-6.33 3.62-3.17 1.69-5.4-0.62-1.41-1.45-6.67-7.1-1.14-1.23-1.93-2.85a1.26 1.24 41.8 0 1-0.06-0.96c1.13-3.25 3.48-6.23 5.03-8.45a1.09 1.08-36 0 0 0.15-0.93l-2.38-7.88a0.79 0.79 0 0 0-0.59-0.55c-2.85-0.62-8.76-1.7-10.36-3.86-1.11-1.49-0.41-4.89-0.23-8.13 0.17-3.23-0.17-6.69 1.09-8.06 1.81-1.97 7.8-2.43 10.7-2.74a0.79 0.79 0 0 0 0.65-0.49l3.19-7.58a1.09 1.08 42 0 0-0.05-0.94c-1.31-2.38-3.33-5.59-4.11-8.94a1.26 1.24-35.7 0 1 0.16-0.95q0.95-1.52 2.22-2.63 5.82-5.06 7.38-6.36 2.46-2.06 5.43-0.04 3.37 2.27 5.92 4.26a0.81 0.8-34.7 0 0 0.72 0.13l7.95-2.42a0.94 0.93-0.6 0 0 0.61-0.63c0.98-3.31 1.41-6.77 3.31-9.5a3.02 3.02 0 0 1 2.58-1.3q0.74 0.03 11.53 0.75 3.08 0.2 3.72 3.48 0.83 4.26 1.19 7.94a0.95 0.95 0 0 0 0.59 0.77l6.98 2.95a0.92 0.89-47.3 0 0 0.8-0.04q5.83-3.31 6.2-3.54 3.3-2.16 6.09 0.97 5.01 5.61 7.45 8.62 1.49 1.85-0.12 4.17-2.7 3.9-4.8 6.66a0.75 0.72 55.5 0 0-0.11 0.64l2.31 7.58a1.2 1.18 87.9 0 0 0.85 0.8c3.62 0.93 6.04 1.53 8.92 2.88 2.74 1.29 1.85 5.1 1.65 8.89z"/> <path d="m392.73 400.33q-11.31 9.47-25.51 12.5-1.08 0.23-1.43-0.75a1.2 1.2 0 0 1 0.86-1.58q14.11-3.2 24.58-11.96 10.48-8.77 16.11-22.09a1.2 1.2 0 0 1 1.71-0.57q0.9 0.52 0.48 1.54-5.48 13.45-16.8 22.91z"/> <path d="m573.83 398.34q0.82 1.15 1.68 2.38a1.42 1.41 70.6 0 0 1.22 0.59c2.82-0.16 8.61-1.13 9.49 2.72q0.97 4.22 2.09 8.4 0.82 3.05-2.13 4.55-2.62 1.32-5.16 2.29a1.18 1.14-6.1 0 0-0.73 0.88l-1.15 6.3a1.29 1.26 25.5 0 0 0.44 1.2c2.4 2 7.18 5.51 4.65 8.77q-0.16 0.21-4.89 7.92a2.79 2.79 0 0 1-3.27 1.19l-6.93-2.31a1.11 1.1-53.7 0 0-1.02 0.16l-5 3.77a0.82 0.81-22.2 0 0-0.31 0.73c0.31 2.45 1.46 8.65-2.34 9.53q-2.54 0.59-8.22 2.2-3.54 1-5.19-2.19-1.14-2.22-2.4-4.88a1.33 1.32-7.2 0 0-0.98-0.75l-5.72-1.05a1.26 1.25-64.5 0 0-1.18 0.42c-1.74 2.03-4.42 5.5-7.36 5.55a0.96 0.92-28.9 0 1-0.53-0.14l-9.03-5.44a2.84 2.83 7.5 0 1-1.25-1.62c-0.64-2.22 1.2-6.41 1.89-8.6a1.08 1.07-56.7 0 0-0.21-1.02q-0.93-1.12-1.76-2.28-0.83-1.17-1.58-2.43a1.08 1.07-14.1 0 0-0.89-0.53c-2.3-0.07-6.86 0.29-8.75-1.05a2.84 2.83-78.3 0 1-1.11-1.71l-2.16-10.32a0.96 0.92-41.8 0 1 0.04-0.55c1.02-2.76 5.18-4.14 7.67-5.12a1.26 1.25-6.2 0 0 0.78-0.97l0.9-5.75a1.33 1.32-63.5 0 0-0.39-1.17q-2.09-2.07-3.81-3.88-2.47-2.61-0.36-5.62 3.4-4.83 4.79-7.03c2.08-3.3 7.56-0.17 9.77 0.93a0.82 0.81-48.5 0 0 0.79-0.05l5.21-3.48a1.11 1.1-17.1 0 0 0.48-0.91l0.11-7.3a2.79 2.79 0 0 1 2.2-2.7q8.84-1.92 9.09-2c3.91-1.32 5.65 4.35 6.75 7.28a1.29 1.26 83.8 0 0 0.98 0.81l6.33 0.99a1.18 1.14-64.6 0 0 1.07-0.4q1.76-2.08 3.87-4.11 2.38-2.29 4.99-0.51 3.58 2.43 7.25 4.74c3.34 2.1 0.51 7.25-0.57 9.85a1.42 1.41 38.6 0 0 0.16 1.35q0.87 1.22 1.69 2.37z"/> <path d="m753.04 451.18a8.34 8.34 0 0 1-8.3545 8.3254l-91.72-0.1601a8.34 8.34 0 0 1-8.3254-8.3545l0.0896-51.36a8.34 8.34 0 0 1 8.3545-8.3254l91.72 0.1601a8.34 8.34 0 0 1 8.3254 8.3545l-0.0896 51.36z"/> <path d="m392 422.76q3.9-0.11 7.51 1.95 1.15 0.65 0.87 1.71a1.32 1.31-65.1 0 1-2.04 0.76q-2.85-2.05-6.27-1.95-3.41 0.1-6.14 2.3a1.32 1.31 61.9 0 1-2.08-0.64q-0.34-1.04 0.77-1.76 3.49-2.26 7.38-2.37z"/> <path d="m431.75 426.76q-3.2-0.43-6.08 1.21a1.25 1.24 71.1 0 1-1.83-0.91q-0.16-1.02 0.98-1.52 3.59-1.58 7.24-1.09 3.63 0.48 6.69 2.94 0.97 0.79 0.55 1.73a1.25 1.24-55.9 0 1-2.01 0.4q-2.35-2.34-5.54-2.76z"/> <path d="m331.4 426.96a14.05 11.19-91 0 1 11.434 13.853 14.05 11.19-91 0 1-10.943 14.243 14.05 11.19-91 0 1-11.434-13.853 14.05 11.19-91 0 1 10.943-14.243z"/> <path d="m393.64 434.83a5.34 3.58-87.6 0 1 3.3533 5.4852 5.34 3.58-87.6 0 1-3.8005 5.1854 5.34 3.58-87.6 0 1-3.3533-5.4852 5.34 3.58-87.6 0 1 3.8005-5.1854z"/> <path d="m408.29 460.05 0.03-0.03a1.49 1.49 0 0 1 1.69-0.53q2.25 0.79 3.18 0.87c2.24 0.19 4.7-0.92 4.01-3.53q-1.63-6.18-2.33-8.46-1.37-4.44-1.52-11.84-0.03-1.24 0.75-1.7a0.93 0.91-15.8 0 1 1.4 0.76q0.13 6.88 2.38 14.6c0.96 3.32 3.53 9.33-0.12 11.54q-3.91 2.39-9.13-0.28a0.95 0.95 0 0 1-0.34-1.4z"/> <path d="m430.12 436.24a5.13 3.55-88.4 0 1 3.4054 5.2271 5.13 3.55-88.4 0 1-3.6918 5.0289 5.13 3.55-88.4 0 1-3.4054-5.2271 5.13 3.55-88.4 0 1 3.6918-5.0289z"/> <path d="m406.12 468.03q4.87 1.06 9.9 1.99 1.53 0.28 2.61 0.85a2.28 2.27 23.1 0 1 1.1 2.73c-2.28 6.91-9.74 10.15-16.69 8.65-6.94-1.5-12.39-7.53-11.62-14.77a2.28 2.27 1.3 0 1 2.13-2.03q1.22-0.08 2.74 0.3 4.96 1.23 9.83 2.28z"/> <path d="m481.24 578.81a0.27 0.26 11.7 0 0-0.24-0.35q-6.65-0.53-9.5-5.87-1.26-2.38-1.2-11.39 0.24-34.91 0.02-57.83-0.06-6 1.36-7.98c2.85-3.98 5.62-4.75 10.95-4.75q82.05 0.09 158.13-0.06 7.89-0.01 10.77 5.4 1.41 2.65 1.37 7.74-0.12 17.12 0.11 59.41 0.04 7.57-1.64 10.39-2.91 4.88-9.4 4.87-90.22-0.15-139.59-0.03a3.63 3.55 29.4 0 0-1.8 0.48l-21.5 12.42a1.08 1.08 0 0 1-1.57-1.28l3.73-11.17z"/> <path d="m717.3 564.83c-4.82 0.04-8.57-0.21-11.3-4.42q-1.43-2.19-1.4-8.1 0.15-27.87 0.04-32.43-0.16-6.78 1.04-8.56c2.55-3.79 4.97-4.92 9.99-4.84q19.22 0.31 67.07 0.03 8.28-0.05 10.25 7.9a4.75 4.65-52.6 0 1 0.14 1.14q0.08 31.95 0.14 34.98 0.12 7.17-1.08 9.27c-2.3 4.01-5.87 5.09-10.84 5.09q-25.8-0.01-45.46-0.16a2.1 2.06-63.7 0 0-1.34 0.47q-10.81 8.76-16.19 13.41-0.57 0.5-1.27 0.15a0.75 0.73 16.4 0 1-0.41-0.73l1.23-12.54a0.61 0.6-87.9 0 0-0.61-0.66z"/> <path d="m386.37 574.63a1.95 1.95 0 0 1-1.95 1.95 1.95 1.95 0 0 1-1.95-1.95 1.95 1.95 0 0 1 1.95-1.95 1.95 1.95 0 0 1 1.95 1.95z"/> <path d="m388.1 587.4a1.98 1.98 0 0 1-1.98 1.98 1.98 1.98 0 0 1-1.98-1.98 1.98 1.98 0 0 1 1.98-1.98 1.98 1.98 0 0 1 1.98 1.98z"/> <path d="m743.08 641.94 0.23-0.7a0.79 0.79 0 0 1 0.75-0.54h17.35a0.79 0.79 0 0 1 0.75 1.04l-0.23 0.7a0.79 0.79 0 0 1-0.75 0.54h-17.35a0.79 0.79 0 0 1-0.75-1.04z"/> <path d="m742.56 647.27a0.46 0.46 0 0 1-0.46-0.45l-0.01-0.25a1.73 1.72 89.6 0 1 1.71-1.75l15.7-0.1a1.73 1.72 89.6 0 1 1.73 1.71l0.01 0.25a0.46 0.46 0 0 1-0.46 0.47l-18.22 0.12z"/> <path d="m367.44 655.11q-7.16 1.58-14.38 0.6-1.19-0.16-1.78-0.78a0.91 0.9-17.8 0 1 0.79-1.52q7.23 0.97 14.84-0.71t13.77-5.59a0.91 0.9-7 0 1 1.35 1.05q-0.27 0.81-1.28 1.46-6.15 3.91-13.31 5.49z"/> <path d="m753.41 649.92a0.94 0.94 0 0 1-0.9317 0.9481l-10.64 0.0929a0.94 0.94 0 0 1-0.9482-0.9318l-0.0017-0.2a0.94 0.94 0 0 1 0.9317-0.9481l10.64-0.0929a0.94 0.94 0 0 1 0.9482 0.9318l0.0017 0.2z"/> <path d="m757.95 660.95a0.89 0.89 0 0 1-0.8869 0.8931l-18.78 0.0656a0.89 0.89 0 0 1-0.8931-0.8869l-0.0017-0.48a0.89 0.89 0 0 1 0.8869-0.8931l18.78-0.0656a0.89 0.89 0 0 1 0.8931 0.8869l0.0017 0.48z"/> <path d="m756.07 664.87a0.97 0.97 0 0 1-0.9683 0.9717l-18.02 0.0314a0.97 0.97 0 0 1-0.9717-0.9683l-5e-4 -0.3a0.97 0.97 0 0 1 0.9683-0.9717l18.02-0.0314a0.97 0.97 0 0 1 0.9717 0.9683l5e-4 0.3z"/> <path d="m748.22 668.95a0.7 0.7 0 0 1-0.7 0.7h-11.94a0.7 0.7 0 0 1-0.7-0.7v-0.88a0.7 0.7 0 0 1 0.7-0.7h11.94a0.7 0.7 0 0 1 0.7 0.7v0.88z"/> <path d="m750.22 679.73a0.98 0.98 0 0 1-0.9817 0.9783l-16.5-0.0288a0.98 0.98 0 0 1-0.9782-0.9817l0.0011-0.64a0.98 0.98 0 0 1 0.9817-0.9783l16.5 0.0288a0.98 0.98 0 0 1 0.9782 0.9817l-0.0011 0.64z"/> <path d="m749.13 683.45a0.87 0.87 0 0 1-0.8685 0.8715l-17.06 0.0298a0.87 0.87 0 0 1-0.8715-0.8685l-8e-4 -0.46a0.87 0.87 0 0 1 0.8685-0.8715l17.06-0.0298a0.87 0.87 0 0 1 0.8715 0.8685l8e-4 0.46z"/> <path d="m748.36 687.56a0.58 0.58 0 0 1-0.5821 0.578l-17.82-0.0622a0.58 0.58 0 0 1-0.5779-0.582l0.0035-1.02a0.58 0.58 0 0 1 0.5821-0.578l17.82 0.0622a0.58 0.58 0 0 1 0.5779 0.582l-0.0035 1.02z"/> <path d="m722.7 715.2a4.33 3.75-53.8 0 1 0.4688 5.7089 4.33 3.75-53.8 0 1-5.5834 1.2793 4.33 3.75-53.8 0 1-0.4688-5.7089 4.33 3.75-53.8 0 1 5.5834-1.2793z"/> </g> <path d="m731.54 658.59a8.82 6.98-46.9 0 1-0.93 11.209 8.82 6.98-46.9 0 1-11.123 1.6707 8.82 6.98-46.9 0 1 0.93-11.209 8.82 6.98-46.9 0 1 11.123-1.6707z" fill="#49a0e0"/> <path d="m323.42 631.39a0.48 0.48 0 0 1-0.48 0.48 0.48 0.48 0 0 1-0.48-0.48 0.48 0.48 0 0 1 0.48-0.48 0.48 0.48 0 0 1 0.48 0.48z" fill="#834f37"/> <g fill="#c8c8c8"> <path d="m747.93 696.49a0.88 0.88 0 0 1-0.8739 0.8862l-37.359 0.2608a0.88 0.88 0 0 1-0.8862-0.8739l-0.0071-1.0199a0.88 0.88 0 0 1 0.8739-0.8862l37.359-0.2608a0.88 0.88 0 0 1 0.8862 0.8739l0.0071 1.0199z"/> <path d="m707.63 700.8a2.97 2.96 12.9 0 1 3.19-2q14.01 1.78 23.22 1.22 8.53-0.53 11.16-0.42a1.12 1.12 0 0 1 1.02 1.48l-0.08 0.26a1.66 1.65 9.3 0 1-1.57 1.12h-7.28a0.77 0.76-80.3 0 0-0.72 0.52l-0.11 0.35a0.66 0.65-77.6 0 1-0.68 0.44c-4.48-0.47-13.37-1.01-16.75 1.32a1.11 1.1 27.7 0 1-0.62 0.19h-10a1.64 1.64 0 0 1-1.56-2.16l0.78-2.32z"/> <path d="m501.87 752.41a0.53 0.53 0 0 1-0.53 0.53 0.53 0.53 0 0 1-0.53-0.53 0.53 0.53 0 0 1 0.53-0.53 0.53 0.53 0 0 1 0.53 0.53z"/> <path d="m230.53 756.21a0.69 0.59 10.4 0 1-0.75-0.92q0.22-0.3 0.61-0.2 0.47 0.11 0.49 0.63 0.01 0.43-0.35 0.49z"/> <path d="m334.63 755.82c-0.25 0.14-0.36-0.18-0.28-0.37a0.28 0.26-23 0 1 0.5 0.18q-0.04 0.1-0.22 0.19z"/> <path d="m453.34 755.47a0.35 0.33 16.1 0 1 0.53-0.27q0.25 0.15 0.21 0.51a0.35 0.34-58.8 0 1-0.64 0.17q-0.1-0.18-0.1-0.41z"/> <path d="m495.93 755.13a0.93 0.73-72.6 0 1 0.4185 1.1057 0.93 0.73-72.6 0 1-0.9747 0.6691 0.93 0.73-72.6 0 1-0.4185-1.1057 0.93 0.73-72.6 0 1 0.9747-0.6691z"/> <path d="m236.09 756.32a0.97 0.69-29.2 0 1-0.5101 1.0755 0.97 0.69-29.2 0 1-1.1833-0.1291 0.97 0.69-29.2 0 1 0.5101-1.0755 0.97 0.69-29.2 0 1 1.1833 0.1291z"/> <path d="m255.41 755.97a0.38 0.37-79.9 0 1 0.39 0.58q-0.18 0.27-0.52 0.33a0.38 0.36 4.6 0 1-0.43-0.48q0.13-0.33 0.56-0.43z"/> <path d="m489.48 756.49a0.84 0.71-19.7 0 1-0.5515 0.9516 0.84 0.71-19.7 0 1-1.0301-0.3852 0.84 0.71-19.7 0 1 0.5515-0.9516 0.84 0.71-19.7 0 1 1.0301 0.3852z"/> <path d="m356.12 756.81a0.32 0.25-40.5 0 1 0.1-0.52q0.39-0.16 0.53 0.08a0.33 0.32 72.5 0 1-0.25 0.5q-0.21 0.02-0.38-0.06z"/> <path d="m275 758.11a0.79 0.7-36.8 0 1-1.2-0.1q-0.18-0.36 0.1-0.65a0.8 0.74-32.9 0 1 1.29 0.22q0.08 0.25-0.19 0.53z"/> <path d="m414.55 757.82a0.17 0.17 0 0 1-0.3-0.14q0.07-0.42 0.3-0.37a0.16 0.16 0 0 1 0.12 0.14q0.03 0.2-0.12 0.37z"/> <path d="m198.06 758.57q-0.14 0.29-0.29 0.29a0.63 0.63 0 0 1-0.46-1.05q0.16-0.19 0.55 0.03 0.44 0.24 0.2 0.73z"/> <path d="m265.52 757.85a0.53 0.41-106.7 0 1 0.545 0.3898 0.53 0.41-106.7 0 1-0.2404 0.6254 0.53 0.41-106.7 0 1-0.545-0.3898 0.53 0.41-106.7 0 1 0.2404-0.6254z"/> <path d="m458.86 758.86a0.5 0.5 0 0 1-0.5 0.5 0.5 0.5 0 0 1-0.5-0.5 0.5 0.5 0 0 1 0.5-0.5 0.5 0.5 0 0 1 0.5 0.5z"/> <path d="m530.58 759.33q-0.33 0.1-0.6-0.54a0.21 0.19 48.6 0 1 0-0.17q0.17-0.35 0.45-0.24a0.56 0.46 41.6 0 1 0.15 0.95z"/> <path d="m492.32 760.22q-0.22-0.09-0.19-0.53 0.04-0.52 0.47-0.52 0.27 0 0.35 0.34a0.58 0.48-88 0 1-0.63 0.71z"/> <path d="m243.58 759.42a0.87 0.65-67.9 0 1 0.2749 1.0506 0.87 0.65-67.9 0 1-0.9295 0.5616 0.87 0.65-67.9 0 1-0.2749-1.0506 0.87 0.65-67.9 0 1 0.9295-0.5616z"/> <path d="m305.38 761.52a0.39 0.31 76.5 0 1 0.53 0.41q-0.08 0.48-0.35 0.6-0.33 0.14-0.39-0.18-0.08-0.53 0.21-0.83z"/> <path d="m443.65 761.96q0.15 0.04 0.21 0.22 0.14 0.39-0.3 0.58-0.44 0.2-0.61-0.06a0.57 0.51-5.1 0 1 0.7-0.74z"/> <path d="m489.4 762.99a1.01 1.01 0 0 1-1.01 1.01 1.01 1.01 0 0 1-1.01-1.01 1.01 1.01 0 0 1 1.01-1.01 1.01 1.01 0 0 1 1.01 1.01z"/> <path d="m399.64 762.15q0.14 0.05 0.22 0.35a0.46 0.42 89.2 0 1-0.51 0.58q-0.15-0.05-0.23-0.39a0.45 0.41-88.1 0 1 0.52-0.54z"/> <path d="m282.51 762.94q-0.19 0.38-0.71 0.65a0.43 0.43 0 0 1-0.63-0.43q0.07-0.55 0.58-0.77a0.55 0.45-3.2 0 1 0.76 0.55z"/> <path d="m407.33 762.56a0.74 0.68-80.4 0 1-0.93 0.72q-0.28-0.1-0.2-0.42a0.65 0.65 0 0 1 0.9-0.45q0.22 0.09 0.23 0.15z"/> <path d="m450.64 763.35a0.45 0.4 87.9 0 1-0.51-0.54q0.07-0.34 0.23-0.4a0.44 0.4 88.4 0 1 0.51 0.54q-0.08 0.34-0.23 0.4z"/> <path d="m273.1 762.74a0.65 0.6 23.7 0 1 0.49 1.1q-0.26 0.18-0.57-0.19-0.28-0.34-0.08-0.73 0.09-0.18 0.16-0.18z"/> <path d="m261.28 764.08a0.61 0.55 16.1 0 1-0.6-0.98q0.07-0.05 0.51-0.11a0.53 0.52 2.5 0 1 0.59 0.63q-0.08 0.33-0.5 0.46z"/> <path d="m497.36 763.59a1 0.66-41.9 0 1-0.3035 1.159 1 0.66-41.9 0 1-1.1851 0.1766 1 0.66-41.9 0 1 0.3035-1.159 1 0.66-41.9 0 1 1.1851-0.1766z"/> <path d="m472.79 764.49a0.74 0.74 0 0 1-0.74 0.74 0.74 0.74 0 0 1-0.74-0.74 0.74 0.74 0 0 1 0.74-0.74 0.74 0.74 0 0 1 0.74 0.74z"/> <path d="m481.03 764.92a1.28 1.08-20.1 0 1-0.8308 1.4541 1.28 1.08-20.1 0 1-1.5732-0.5743 1.28 1.08-20.1 0 1 0.8308-1.4541 1.28 1.08-20.1 0 1 1.5732 0.5743z"/> <path d="m229.6 766.07a0.48 0.47-61.3 0 1-0.21-0.73q0.34-0.44 0.79-0.49 0.5-0.07 0.63 0.45 0.11 0.44-0.31 0.65-0.51 0.25-0.9 0.12z"/> <path d="m243.04 765.9q-0.29-0.3-0.22-0.42a1.22 1.18-41.8 0 1 2.14 0.08q0.16 0.36-0.05 0.59a1.45 1.09 44.7 0 1-1.87-0.25z"/> <path d="m333.85 765.04q0.42 0.03 0.24 0.42-0.25 0.54-0.55 0.41a0.48 0.42-28 0 1 0.31-0.83z"/> <path d="m429.5 765.62q0.01-0.4 0.32-0.64 0.3-0.25 0.42 0.12 0.12 0.36-0.19 0.64a0.34 0.27-26 0 1-0.55-0.12z"/> <path d="m436.65 765.82a0.41 0.35 80.2 0 1-0.52-0.43q0.02-0.31 0.36-0.47a0.41 0.37-2.4 0 1 0.57 0.47q-0.13 0.27-0.41 0.43z"/> <path d="m198.48 765.15a0.63 0.41-88.8 0 1 0.3967 0.6385 0.63 0.41-88.8 0 1-0.4231 0.6213 0.63 0.41-88.8 0 1-0.3967-0.6385 0.63 0.41-88.8 0 1 0.4231-0.6213z"/> <path d="m292.6 765.8a0.35 0.3-37.1 0 1 0.13-0.59q0.42-0.12 0.71 0.06 0.34 0.22 0.03 0.43-0.44 0.3-0.87 0.1z"/> <path d="m326.35 765.37a0.46 0.4-2.2 0 1-0.54 0.51q-0.36-0.06-0.39-0.28a0.46 0.42 2.2 0 1 0.55-0.47q0.31 0.06 0.38 0.24z"/> <path d="m395.8 765.94a0.55 0.5-3.9 0 1-0.76-0.6q0.08-0.22 0.47-0.21 0.51 0.02 0.53 0.49 0.01 0.21-0.24 0.32z"/> <path d="m465.72 766.48q-0.45-0.8 0.51-0.95 1.14-0.16 1.19 0.61a0.93 0.85 31.1 0 1-1.7 0.34z"/> <path d="m418.99 765.77a0.81 0.65-52.7 0 1 0.0262 1.0382 0.81 0.65-52.7 0 1-1.008 0.2504 0.81 0.65-52.7 0 1-0.0262-1.0382 0.81 0.65-52.7 0 1 1.008-0.2504z"/> <path d="m447.81 766.39a0.73 0.73 0 0 1-0.73 0.73 0.73 0.73 0 0 1-0.73-0.73 0.73 0.73 0 0 1 0.73-0.73 0.73 0.73 0 0 1 0.73 0.73z"/> <path d="m458.99 766.42a1.07 0.75-36.7 0 1-0.4097 1.2408 1.07 0.75-36.7 0 1-1.3061 0.0382 1.07 0.75-36.7 0 1 0.4097-1.2408 1.07 0.75-36.7 0 1 1.3061-0.0382z"/> <path d="m407.56 767.82a0.17 0.17 0 0 1-0.29-0.13q0.07-0.41 0.3-0.37a0.15 0.15 0 0 1 0.11 0.16q-0.02 0.22-0.12 0.34z"/> </g> <g fill="#53ce85"> <path d="m317.17 652.79a0.69 0.69 0 0 1-0.69 0.69 0.69 0.69 0 0 1-0.69-0.69 0.69 0.69 0 0 1 0.69-0.69 0.69 0.69 0 0 1 0.69 0.69z"/> <path d="m662.75 709.66a0.17 0.17 0 0 1-0.32 0.05q-0.13-0.25 0-0.37a0.13 0.12 49.3 0 1 0.19 0.02q0.14 0.2 0.13 0.3z"/> <path d="m435.87 757.64a0.51 0.51 0 0 1-0.51 0.51 0.51 0.51 0 0 1-0.51-0.51 0.51 0.51 0 0 1 0.51-0.51 0.51 0.51 0 0 1 0.51 0.51z"/> <path d="m422.14 762.2q0.26-0.12 0.62-0.08a0.35 0.34-55.8 0 1 0.11 0.64q-0.27 0.16-0.63 0.04a0.35 0.31 38.7 0 1-0.1-0.6z"/> </g> <g fill="#fbc217"> <path d="m737.08 639.68a8.86 7.04-50 0 1-0.3021 11.312 8.86 7.04-50 0 1-11.088 2.262 8.86 7.04-50 0 1 0.3021-11.312 8.86 7.04-50 0 1 11.088-2.262z"/> <path d="m725.97 676.85a8.61 6.85-45.8 0 1-1.0918 10.948 8.61 6.85-45.8 0 1-10.913 1.397 8.61 6.85-45.8 0 1 1.0918-10.948 8.61 6.85-45.8 0 1 10.913-1.397z"/> </g> <g fill="#fff"> <path d="m699.01 393.84q35.63 0.02 45.49 0.08 2.02 0.02 3.54 1.12a0.67 0.66-45.2 0 1 0 1.07q-21.4 15.8-44.59 33.86-2.29 1.78-4.45 1.78-2.17 0-4.46-1.79-23.17-18.07-44.56-33.89a0.67 0.66 45.2 0 1 0-1.07q1.52-1.1 3.54-1.11 9.86-0.06 45.49-0.05z"/> <path d="m682.88 424.92-33.82 28.67a0.81 0.81 0 0 1-1.23-0.21q-0.5-0.87-0.52-2.38-0.31-32.11-0.11-52.65a0.71 0.71 0 0 1 1.14-0.56l34.51 26.1a0.67 0.66 43.5 0 1 0.03 1.03z"/> <path d="m715.59 423.66 33.5-25.27a1.04 1.04 0 0 1 1.67 0.83v53.48a1.04 1.04 0 0 1-1.71 0.8l-33.5-28.21a1.04 1.04 0 0 1 0.04-1.63z"/> <path d="m699 434.12c4.13 0 9.55-4.95 12.93-7.62a0.97 0.96-43.9 0 1 1.22 0.02l33.99 28.62a0.99 0.99 0 0 1-0.63 1.76q-21.99 0.12-47.49 0.15-25.49 0.02-47.48-0.07a0.99 0.99 0 0 1-0.63-1.75l33.93-28.68a0.97 0.96 43.8 0 1 1.22-0.03c3.39 2.67 8.81 7.6 12.94 7.6z"/> <path d="m417.06 472.89a0.11 0.11 0 0 1 0.08 0.13l-0.01 0.04a11.75 9.53 13 0 1-13.59 6.65l-0.26-0.06a11.75 9.53 13 0 1-9.3-11.93l0.01-0.04a0.11 0.11 0 0 1 0.13-0.08l22.94 5.29z"/> <path d="m480.94 586.71 3.21-9.6a0.98 0.98 0 0 0-0.99-1.29c-4.13 0.26-7.16-0.28-9.49-3.88q-1.16-1.78-1.09-6.35 0.21-12.27-0.03-62.15-0.02-5 1.47-7.15 2.24-3.23 6.98-3.22 107.88 0.04 157.93-0.12 5.57-0.02 7.89 1.39 3.43 2.07 3.52 6.92 0.27 13.12 0.3 65.76 0 7.23-6.73 8.9a1.39 1.23-48.6 0 1-0.32 0.04l-140.92 0.03a7.77 7.7-59.8 0 0-3.87 1.04l-17.4 10.05a0.32 0.31-5.9 0 1-0.46-0.37z"/> <path d="m723.47 662.47a0.33 0.33 0 0 1 0.4 0.47l-1.06 1.83a0.94 0.94 0 0 0 0.92 1.4l3.91-0.47a0.67 0.66 83.4 0 0 0.57-0.73l-0.09-0.72a0.65 0.64 83.2 0 0-0.71-0.56l-0.97 0.12a0.65 0.65 0 0 1-0.42-1.19q1.01-0.64 2.56-0.26a1.57 1.56 14.6 0 1 1.15 1.94q-0.42 1.51-1.6 2.82a1.19 1.17 20.7 0 1-0.88 0.39q-2.86-0.02-3.78-0.06a2.19 2.19 0 0 1-2.02-2.77q0.44-1.59 2.02-2.21z"/> </g> <g fill="#010101"> <path d="m729.47 647q-0.3-0.32-1.25-0.54-0.75-0.18-0.87-0.53-0.32-0.95 0.82-1.79a1.08 1.08 0 0 1 1.69 0.66q0.14 0.72 0.15 0.74a1.7 1.58-55.1 0 0 3.06-0.66q0.2-1.3 1.88-1.12a0.79 0.79 0 0 1 0.61 1.18l-2.13 3.69a1.21 1.2-80.9 0 1-0.8 0.58q-2.07 0.46-4.2-0.19a0.72 0.72 0 0 1-0.24-1.26q0.67-0.53 1.08-0.42a0.21 0.21 0 0 0 0.2-0.34z"/> <path d="m718.02 680.59q1.21 0.02 1.34 1.36a0.66 0.65-9.6 0 1-0.51 0.7q-0.06 0.02-0.86 0-0.81-0.01-0.87-0.02a0.66 0.65 11.3 0 1-0.48-0.72q0.17-1.33 1.38-1.32z"/> <path d="m723.96 681.12q0.55 1.21-0.98 1.67-1.43 0.42-1.8-0.39t0.88-1.62q1.34-0.87 1.9 0.34z"/> <path d="m716.5 684.01 1.7 0.56a1.17 1.03 48.7 0 0 0.46 0.06l3.86-0.32a0.61 0.61 0 0 1 0.35 1.14c-1.39 0.77-5.43 1.73-6.53-0.01q-0.57-0.89-0.2-1.33a0.34 0.33-59.8 0 1 0.36-0.1z"/> </g> <g fill="#49a0e0"> <path d="m566.78 311.48a0.96 0.95 55.1 0 1 0.21-1.2l8.96-7.6a2.31 2.31 0 0 1 2.89-0.08l6.31 4.77a1.73 1.73 0 0 0 1.54 0.28l8.45-2.56a2.62 2.62 0 0 0 1.74-1.69l2.73-8.18a2.07 2.07 0 0 1 2.07-1.41l10.49 0.58a2.04 2.03 86.6 0 1 1.89 1.68l1.52 8.69a0.94 0.91-80.9 0 0 0.44 0.63l7.37 4.25a2.88 2.87 44.8 0 0 2.89 0l7.89-4.55a1.24 1.22 54.6 0 1 1.55 0.27l7.33 8.64a2.38 2.37-46.6 0 1 0.08 2.97l-4.65 6.15a1.71 1.7 55.2 0 0-0.27 1.52l2.78 9.21a1.65 1.65 0 0 0 1.22 1.13c2.75 0.59 7.38 1.36 9.85 3.45a0.72 0.68 22.8 0 1 0.25 0.57l-0.61 10.86a1.94 1.94 0 0 1-1.6 1.81l-8.95 1.57a2.07 2.06 6.6 0 0-1.55 1.22l-3.49 8.23a2.23 2.21 41.8 0 0 0.12 1.97l4.64 8.02a1.23 1.23 0 0 1-0.27 1.55l-9.05 7.67a1.41 1.41 0 0 1-1.76 0.05l-6.67-5.04a1.72 1.71-34.6 0 0-1.55-0.28l-8.62 2.61a2.37 2.35-1.6 0 0-1.62 1.7l-2.02 8.2a1.65 1.65 0 0 1-1.6 1.25h-10.88a1.38 1.38 0 0 1-1.02-0.45c-1.89-2.1-2-5.9-2.67-9.08a2.92 2.91 9.1 0 0-1.4-1.92l-7.6-4.39a2.06 2.06 0 0 0-2.12 0.03q-3.7 2.29-6.41 3.77-2.38 1.29-4.11-0.58-3.42-3.71-5.81-6.28-1.8-1.95-0.34-4.3 2.03-3.26 3.62-5.66a2.16 2.15 53.4 0 0 0.27-1.83l-2.86-9.46a0.74 0.73 0.9 0 0-0.47-0.48l-9.09-3.04a1.76 1.75-80.8 0 1-1.2-1.67v-10.56a2.38 2.38 0 0 1 1.96-2.34l8.43-1.48a2.4 2.38-86.6 0 0 1.89-1.69q1.12-3.84 3.19-6.73a2.82 2.81-42.3 0 0 0.15-3.05l-4.46-7.72z"/> <path d="m520.93 449.11a1.14 1.13-66 0 1-0.51-1.34l2.43-7.28a1.68 1.66-54.7 0 0-0.25-1.52l-4.75-6.3a1.5 1.47 71 0 0-1.18-0.59h-7.18a1.39 1.38-4.9 0 1-1.37-1.14l-1.64-9.39a1.11 1.09 73.5 0 1 0.64-1.2l6.36-2.74a1.82 1.81 83.2 0 0 1.08-1.38l1.26-8a1.24 1.24 0 0 0-0.34-1.05l-5.01-5.01a1.59 1.57-49.1 0 1-0.14-2.08l5.47-7.23a1.27 1.26 28 0 1 1.41-0.43l7.3 2.43a0.51 0.49 35.1 0 0 0.47-0.07l6.55-4.95a1.73 1.72-18.6 0 0 0.69-1.38v-7.43a1.15 1.15 0 0 1 0.95-1.13l9.07-1.59a1.72 1.72 0 0 1 1.87 1.01l2.48 5.77a2.17 2.15-8.1 0 0 1.73 1.29l7.6 0.89a1.25 1.22 25.4 0 0 1.02-0.35l4.94-4.94a1.89 1.88-48.8 0 1 2.48-0.17l7.25 5.49a1.09 1.09 0 0 1 0.38 1.22l-2.18 6.54a2.59 2.59 0 0 0 0.59 2.62q2.07 2.15 3.42 5.15a1.47 1.46-12.3 0 0 1.33 0.85h7.47a1.91 1.91 0 0 1 1.88 1.58l1.39 7.96a2.04 2.03-16.8 0 1-1.2 2.22l-5.97 2.57a0.91 0.9-6.3 0 0-0.53 0.66l-1.51 8.29a1.41 1.38-63.1 0 0 0.39 1.24l5.07 5.08a1.37 1.37 0 0 1 0.22 1.65l-4.34 7.5a1.7 1.7 0 0 1-2.01 0.77l-6.8-2.27a1.98 1.98 0 0 0-1.83 0.29l-5.88 4.44a1.65 1.63 71.7 0 0-0.65 1.31v7.26a1 1 0 0 1-0.76 0.97l-8.97 2.23a1.96 1.95-18.4 0 1-2.26-1.13l-2.26-5.26a3.08 3.07-8.2 0 0-2.46-1.83l-7.3-0.86a1.15 1.13 21.1 0 0-1.06 0.46q-2.08 2.89-5.41 5.22a0.82 0.81 42.5 0 1-0.87 0.03l-8.57-4.95z"/> <path d="m719.64 573.37 0.53-9.72a1.14 1.14 0 0 0-1.14-1.21c-2.97-0.01-6.26 0.27-8.42-1.08-3.04-1.89-3.62-4.17-3.62-7.92q-0.01-20.21-0.09-34.11c-0.03-4.99 0.46-8.17 4.76-9.98q1.17-0.5 4.73-0.49 50.34 0.07 67.65 0.03a3.18 3.07 53.8 0 1 1.15 0.2c6.52 2.35 5.82 7.41 5.76 14.33q-0.19 21.85-0.07 28.77c0.14 7.69-2.37 10.32-9.51 10.27q-23.64-0.18-46.18-0.09a3.7 3.68-65.2 0 0-2.35 0.87l-12.41 10.53a0.48 0.48 0 0 1-0.79-0.4z"/> </g> <g fill="#c8c8c8"> <path d="m331.38 429.41a11.58 8.57-91.5 0 1 8.8702 11.352 11.58 8.57-91.5 0 1-8.264 11.8 11.58 8.57-91.5 0 1-8.8702-11.352 11.58 8.57-91.5 0 1 8.264-11.8z"/> <path d="m720.26 717.05a1.53 1.33-80.1 0 1 1.0471 1.7359 1.53 1.33-80.1 0 1-1.5733 1.2785 1.53 1.33-80.1 0 1-1.0471-1.7359 1.53 1.33-80.1 0 1 1.5733-1.2785z"/> </g> <g fill="#fff"> <path d="m783.11 520.47a1.21 1.21 0 0 1-1.2079 1.2121l-65.98 0.1152a1.21 1.21 0 0 1-1.2121-1.2079l-0.0021-1.22a1.21 1.21 0 0 1 1.2079-1.2121l65.98-0.1152a1.21 1.21 0 0 1 1.2121 1.2079l0.0021 1.22z"/> <path d="m782.87 528.68a1.18 1.18 0 0 1-1.1779 1.1821l-65.82 0.1148a1.18 1.18 0 0 1-1.1821-1.1779l-0.0015-0.9a1.18 1.18 0 0 1 1.1779-1.1821l65.82-0.1148a1.18 1.18 0 0 1 1.1821 1.1779l0.0015 0.9z"/> <path d="m782.76 536.86a1.34 1.34 0 0 1-1.3376 1.3423l-65.42 0.1142a1.34 1.34 0 0 1-1.3424-1.3377l-0.0011-0.68a1.34 1.34 0 0 1 1.3376-1.3423l65.42-0.1142a1.34 1.34 0 0 1 1.3424 1.3377l0.0011 0.68z"/> <path d="m775.51 545.44a1.06 1.06 0 0 1-1.06 1.06h-58.54a1.06 1.06 0 0 1-1.06-1.06v-1.18a1.06 1.06 0 0 1 1.06-1.06h58.54a1.06 1.06 0 0 1 1.06 1.06v1.18z"/> <path d="m738.65 552.97a1.55 1.55 0 0 1-1.55 1.55h-20.56a1.55 1.55 0 0 1-1.55-1.55v-0.34a1.55 1.55 0 0 1 1.55-1.55h20.56a1.55 1.55 0 0 1 1.55 1.55v0.34z"/> </g> <g fill="#010101"> <path d="m632.95 342.07a29.19 29.19 0 0 1-29.19 29.19 29.19 29.19 0 0 1-29.19-29.19 29.19 29.19 0 0 1 29.19-29.19 29.19 29.19 0 0 1 29.19 29.19z"/> <path d="m570.61 417.76a24.46 24.46 0 0 1-24.46 24.46 24.46 24.46 0 0 1-24.46-24.46 24.46 24.46 0 0 1 24.46-24.46 24.46 24.46 0 0 1 24.46 24.46z"/> <path d="m597.21 517.54q-0.08 0.23-0.07 0.26 1.09 4.63 1.24 5.67 0.11 0.79-0.63 0.98c-0.72 0.17-2.98-1.48-5.13-2.88a1.29 1.27-43.3 0 0-1.33-0.03l-4.72 2.73a0.91 0.91 0 0 1-1.34-1.01l1.27-5.17a1.17 1.15 28 0 0-0.36-1.15q-1.84-1.63-3.59-3.25-0.38-0.36-0.16-1.05 0.22-0.66 0.74-0.72 2.37-0.27 4.82-0.5a1.17 1.15 8.4 0 0 0.97-0.71l2.04-4.92a0.91 0.91 0 0 1 1.68-0.02l2.18 5a1.29 1.27 79.6 0 0 1.09 0.76c2.56 0.15 5.36 0.16 5.84 0.72q0.49 0.59-0.07 1.17-0.74 0.74-4.36 3.83-0.02 0.02-0.11 0.29z"/> <path d="m561.99 512.66q0.21-0.66 0.74-0.72 2.36-0.3 4.8-0.54a1.17 1.15 7.9 0 0 0.97-0.72l1.99-4.93a0.91 0.91 0 0 1 1.68-0.03l2.22 4.97a1.29 1.27 79.1 0 0 1.09 0.75c2.56 0.13 5.36 0.12 5.84 0.67q0.49 0.59-0.06 1.17-0.73 0.75-4.32 3.86-0.03 0.02-0.11 0.29-0.08 0.23-0.07 0.26 1.13 4.62 1.29 5.65 0.11 0.79-0.62 0.99c-0.72 0.17-2.99-1.46-5.15-2.84a1.29 1.27-43.8 0 0-1.33-0.02l-4.69 2.77a0.91 0.91 0 0 1-1.35-1l1.23-5.17a1.17 1.15 27.5 0 0-0.37-1.15q-1.85-1.61-3.61-3.21-0.39-0.36-0.17-1.05z"/> <path d="m602.74 512.72q0.21-0.65 0.73-0.71 2.34-0.29 4.77-0.53a1.16 1.14 8 0 0 0.95-0.71l1.99-4.88a0.9 0.9 0 0 1 1.66-0.03l2.2 4.93a1.27 1.26 79.3 0 0 1.08 0.75c2.54 0.13 5.31 0.12 5.79 0.68q0.48 0.58-0.07 1.15-0.72 0.74-4.29 3.82-0.02 0.02-0.11 0.29-0.07 0.23-0.06 0.26 1.11 4.58 1.26 5.61 0.11 0.78-0.62 0.97c-0.71 0.17-2.96-1.45-5.1-2.82a1.27 1.26-43.7 0 0-1.31-0.02l-4.66 2.73a0.9 0.9 0 0 1-1.33-0.99l1.22-5.13a1.16 1.14 27.6 0 0-0.36-1.13q-1.83-1.6-3.57-3.2-0.39-0.36-0.17-1.04z"/> <path d="m623.16 512.66q0.21-0.66 0.74-0.72 2.37-0.28 4.82-0.52a1.17 1.16 8.1 0 0 0.97-0.72l2.02-4.93a0.91 0.91 0 0 1 1.68-0.02l2.21 4.99a1.29 1.27 79.4 0 0 1.09 0.76c2.57 0.13 5.37 0.13 5.85 0.69q0.49 0.59-0.07 1.17-0.73 0.75-4.35 3.85-0.02 0.02-0.11 0.29-0.07 0.23-0.06 0.26 1.11 4.63 1.26 5.67 0.12 0.79-0.62 0.99c-0.72 0.17-2.99-1.47-5.15-2.86a1.29 1.27-43.5 0 0-1.33-0.03l-4.71 2.76a0.91 0.91 0 0 1-1.35-1.01l1.25-5.18a1.17 1.16 27.7 0 0-0.37-1.15q-1.85-1.62-3.6-3.24-0.39-0.36-0.17-1.05z"/> <path d="m541.23 512.62q0.22-0.66 0.75-0.73 2.39-0.27 4.85-0.5a1.18 1.16 8.3 0 0 0.98-0.72l2.05-4.96a0.92 0.92 0 0 1 1.69-0.02l2.21 5.02a1.3 1.28 79.5 0 0 1.1 0.77c2.58 0.14 5.4 0.15 5.88 0.72q0.49 0.59-0.07 1.17-0.74 0.75-4.39 3.87-0.02 0.02-0.11 0.29-0.07 0.23-0.07 0.26 1.11 4.67 1.26 5.71 0.12 0.8-0.63 0.99c-0.72 0.18-3-1.48-5.17-2.89a1.3 1.28-43.4 0 0-1.34-0.03l-4.75 2.76a0.92 0.92 0 0 1-1.36-1.01l1.27-5.21a1.18 1.16 27.9 0 0-0.36-1.16q-1.86-1.64-3.62-3.27-0.39-0.37-0.17-1.06z"/> <path d="m515.34 566.27q-0.53 0.07-1.06-0.32l0.61-3.09a0.62 0.62 0 0 0-0.41-0.7l-20.4-6.81a1.01 1 21.1 0 0-1.23 0.54l-1.74 3.78q-0.76-0.06-1.23-1.03 0.9-1.82 1.46-3.61c0.46-1.52 1.23-2.2 2.73-1.79a1.45 1.34-89.1 0 0 1.65-1.73c-1.28-5.99-1.17-10.43-0.5-16.09 0.66-5.66-0.85-13.04 0.87-17.86 0.64-1.78 2.76-1.94 4.02-0.84q0.69 0.61 0.97 2.14 0.65 3.6 0.77 4.29a0.21 0.2 80.7 0 0 0.22 0.17h0.01a0.2 0.2 0 0 0 0.19-0.2c0.06-3.46 0.24-9.93 2.48-11.94 2-1.79 4.31-0.34 4.77 2.07q0.2 1.04 0.6 5.47a0.01 0-40.3 0 0 0.01 0c0.71-3.43 0.4-9.27 4.63-10.5 1.6-0.47 3.4 1.19 3.4 2.73q0 3.12-0.64 14.13a0.3 0.3 0 0 0 0.27 0.32l0.01 0.01a0.3 0.29-81.6 0 0 0.32-0.24c0.67-3.45 1.21-8.02 3.36-10.84 1.81-2.38 4.77-1.51 5.1 1.45q0.2 1.77-0.12 3.42-2.32 11.94-3.43 20.39a0.41 0.41 0 0 0 0.6 0.41q3.11-1.68 5.74-2.35c2.5-0.64 6.89-0.64 7.53 2.55 0.39 1.92-1.45 3.09-3.14 3.94q-5.95 3-7.03 4.1-1.93 1.97-3.94 4.35c-1.62 1.93-3.5 3.05-6.12 4.42a1.76 1.75 54.8 0 0-0.47 2.75q0.87 0.94 1.11 1.88a1.27 1.24-39.3 0 1-0.1 0.89l-1.87 3.74z"/> <path d="m572.16 533.67q-0.65-1.27-1.13-1.41a1.57 1.32 75.8 0 0-1.2 2.48q1.26 1.66 2.71 2.96c5.64 5.02-3.17 11.43-5.55 4.24a1.13 1 80.8 0 1 0.94-1.48q1.6 0.08 2.16 1.84a0.9 0.9 0 0 0 1.69 0.06c1.48-3.72-6.55-4.84-4.4-9.76q1.6-3.66 5.14-1.8 1.52 0.8 1.51 2.42a0.99 0.99 0 0 1-1.87 0.45z"/> <path d="m595.54 540.34 1.66-9.1a1.03 1.03 0 0 1 0.84-0.83l0.55-0.1a0.73 0.73 0 0 1 0.85 0.85l-2.31 12.66a1.74 1.74 0 0 1-3.43-0.01l-2.16-12.28a0.71 0.71 0 0 1 0.57-0.82l0.55-0.09a0.89 0.89 0 0 1 1.04 0.73l1.58 8.99a0.13 0.13 0 0 0 0.26 0z"/> <path d="m578.43 542.65h2.96a0.43 0.43 0 0 1 0.43 0.43v1.38a0.43 0.43 0 0 1-0.43 0.43h-5.39a0.43 0.43 0 0 1-0.43-0.43v-13.46a0.43 0.43 0 0 1 0.43-0.43h5.18a0.43 0.43 0 0 1 0.43 0.43v1.24a0.43 0.43 0 0 1-0.43 0.43h-2.84a0.43 0.43 0 0 0-0.43 0.43v2.9a0.43 0.43 0 0 0 0.43 0.43h2.16a0.43 0.43 0 0 1 0.43 0.43v1.13a0.43 0.43 0 0 1-0.43 0.43h-2.07a0.43 0.43 0 0 0-0.43 0.43v3.37a0.43 0.43 0 0 0 0.43 0.43z"/> <path d="m585.6 539.87v4.43a0.82 0.82 0 0 1-0.82 0.82h-0.52a0.93 0.93 0 0 1-0.93-0.93v-13.07a0.58 0.57-0 0 1 0.58-0.57h3.84a2.07 2.06 70.4 0 1 1.6 0.76q2.4 2.97 0.05 6.51a0.89 0.88-39 0 0-0.09 0.8q0.97 2.48 1.09 5.43a0.67 0.67 0 0 1-0.67 0.7h-0.38a0.97 0.95 81.9 0 1-0.92-0.7l-1.23-4.4a0.82 0.81-52.8 0 0-1.6 0.22z"/> <path d="m602.87 544.29a0.75 0.75 0 0 1-0.7552 0.7447l-0.78-0.0054a0.75 0.75 0 0 1-0.7448-0.7552l0.0912-13.06a0.75 0.75 0 0 1 0.7552-0.7447l0.78 0.0054a0.75 0.75 0 0 1 0.7448 0.7552l-0.0912 13.06z"/> <path d="m609.61 540.06a1.13 1.13 0 0 1 2.22-0.15c0.8 3.38-3.33 7.1-6.24 3.86-1.47-1.63-1.26-6.58-1.22-9.2 0.08-5.92 8.24-4.99 7.87 0.08a0.91 0.91 0 0 1-1 0.84l-0.54-0.05a0.95 0.94-88.3 0 1-0.85-0.91q-0.04-1.62-0.95-2.09a1.24 1.15-74.6 0 0-1.69 1.05q-0.29 3.39 0.21 8.47a1 1 0 0 0 2 0l0.19-1.9z"/> <path d="m618.14 538.39h-2.19a0.41 0.41 0 0 0-0.41 0.41v3.6a0.41 0.41 0 0 0 0.41 0.41h2.46a0.41 0.41 0 0 1 0.41 0.41v1.26a0.41 0.41 0 0 1-0.41 0.41h-4.69a0.41 0.41 0 0 1-0.41-0.41v-13.46a0.41 0.41 0 0 1 0.41-0.41h5.23a0.41 0.41 0 0 1 0.41 0.41v1.03a0.41 0.41 0 0 1-0.41 0.41h-3.11a0.41 0.41 0 0 0-0.41 0.41v3.26a0.41 0.41 0 0 0 0.41 0.41h2.3a0.41 0.41 0 0 1 0.41 0.41v1.03a0.41 0.41 0 0 1-0.41 0.41z"/> <path d="m623.23 540.32a0.56 0.56 0 0 1-0.5744 0.5451l-1.0597-0.0277a0.56 0.56 0 0 1-0.5451-0.5745l0.2382-9.0969a0.56 0.56 0 0 1 0.5744-0.5451l1.0597 0.0277a0.56 0.56 0 0 1 0.5451 0.5745l-0.2382 9.0969z"/> <path d="m621.32 542.74a1.37 1.25-136.1 0 1 1.854 0.0493 1.37 1.25-136.1 0 1 0.1204 1.8507 1.37 1.25-136.1 0 1-1.854-0.0493 1.37 1.25-136.1 0 1-0.1204-1.8507z"/> <path d="m639.69 567.85q-0.64 1.11-1.85 1.36-0.38-2.23-2.06-2.92c-2.18-0.89-2.84 2.48-5.39 0.79-3.52-2.34-4.31 0.27-6.27 2.25q-0.6-0.13-0.85-0.5 0.93-3.08 4.87-4.66a0.53 0.52 64.7 0 0 0.26-0.74c-0.83-1.52-2.04-2.51-2.4-4.45q-0.79-4.17 1.9-6.51a0.66 0.65-68 0 1 0.37-0.16l4.41-0.53a2.99 2.98-12.9 0 1 3.18 1.99q1.08 3.19 0.52 7.01c-0.17 1.12-0.91 1.63-1.38 2.46a0.5 0.5 0 0 0 0.27 0.72q2.67 0.95 4.42 3.89z"/> </g> <path d="m639.69 567.85q-1.75-2.94-4.42-3.89a0.5 0.5 0 0 1-0.27-0.72c0.47-0.83 1.21-1.34 1.38-2.46q0.56-3.82-0.52-7.01a2.99 2.98-12.9 0 0-3.18-1.99l-4.41 0.53a0.66 0.65-68 0 0-0.37 0.16q-2.69 2.34-1.9 6.51c0.36 1.94 1.57 2.93 2.4 4.45a0.53 0.52 64.7 0 1-0.26 0.74q-3.94 1.58-4.87 4.66-1.77-0.2-2.82-2.02c-2.79-4.79-2.37-10.53 1.76-14.36q2.75-2.55 7.26-2.98 9.48-0.9 12.44 6.64 2.44 6.21-2.22 11.74z" fill="#bbe9f2"/> <g fill="#49a0e0"> <path d="m515.34 566.27 1.87-3.74a1.27 1.24-39.3 0 0 0.1-0.89q-0.24-0.94-1.11-1.88a1.76 1.75 54.8 0 1 0.47-2.75c2.62-1.37 4.5-2.49 6.12-4.42q2.01-2.38 3.94-4.35 1.08-1.1 7.03-4.1c1.69-0.85 3.53-2.02 3.14-3.94-0.64-3.19-5.03-3.19-7.53-2.55q-2.63 0.67-5.74 2.35a0.41 0.41 0 0 1-0.6-0.41q1.11-8.45 3.43-20.39 0.32-1.65 0.12-3.42c-0.33-2.96-3.29-3.83-5.1-1.45-2.15 2.82-2.69 7.39-3.36 10.84a0.3 0.29-81.6 0 1-0.32 0.24l-0.01-0.01a0.3 0.3 0 0 1-0.27-0.32q0.64-11.01 0.64-14.13c0-1.54-1.8-3.2-3.4-2.73-4.23 1.23-3.92 7.07-4.63 10.5a0.01 0-40.3 0 1-0.01 0q-0.4-4.43-0.6-5.47c-0.46-2.41-2.77-3.86-4.77-2.07-2.24 2.01-2.42 8.48-2.48 11.94a0.2 0.2 0 0 1-0.19 0.2h-0.01a0.21 0.2 80.7 0 1-0.22-0.17q-0.12-0.69-0.77-4.29-0.28-1.53-0.97-2.14c-1.26-1.1-3.38-0.94-4.02 0.84-1.72 4.82-0.21 12.2-0.87 17.86-0.67 5.66-0.78 10.1 0.5 16.09a1.45 1.34-89.1 0 1-1.65 1.73c-1.5-0.41-2.27 0.27-2.73 1.79q-0.56 1.79-1.46 3.61-8.82-7.59-10.2-19.08-1.15-9.54 3.45-17.21 11.87-19.82 35.28-16.96c9.27 1.13 17.85 8.94 21.72 16.78 4.08 8.26 3.52 17.62 0.59 26.11a5.58 5.19-22.4 0 1-0.4 0.87c-4.65 8.21-14.04 16.09-24.07 17.47q-0.38 0.06-0.91-0.35z"/> <path d="m514.28 565.95q-0.24 0.87-1.3 0.92-12.29 0.5-21.87-7.2l1.74-3.78a1.01 1 21.1 0 1 1.23-0.54l20.4 6.81a0.62 0.62 0 0 1 0.41 0.7l-0.61 3.09z"/> </g> <g fill="#c8c8c8"> <path d="m612.07 555.62a0.79 0.79 0 0 1-0.7886 0.7914l-59.5 0.1038a0.79 0.79 0 0 1-0.7914-0.7886l-0.0033-1.88a0.79 0.79 0 0 1 0.7886-0.7914l59.5-0.1038a0.79 0.79 0 0 1 0.7914 0.7886l0.0033 1.88z"/> <path d="m596.8 561.92a1.09 1.09 0 0 1-1.0881 1.0919l-43.56 0.076a1.09 1.09 0 0 1-1.0919-1.0881l-0.0023-1.28a1.09 1.09 0 0 1 1.0881-1.0919l43.56-0.076a1.09 1.09 0 0 1 1.0919 1.0881l0.0023 1.28z"/> </g> <path d="m637.84 569.21c-3.19 3.17-10.51 3.61-13.72 0.12 1.96-1.98 2.75-4.59 6.27-2.25 2.55 1.69 3.21-1.68 5.39-0.79q1.68 0.69 2.06 2.92z" fill="#fbc217"/> <path d="m585.65 533.09a0.45 0.45 0 0 1 0.45-0.45h0.16a1.87 1.84-0.6 0 1 1.89 1.82v0.66a1.87 1.84-0.6 0 1-1.85 1.86h-0.16a0.45 0.45 0 0 1-0.45-0.45l-0.04-3.44z" fill="#fff"/> <g fill="#49a0e0"> <path d="m630.41 342.1a26.66 26.66 0 0 1-26.66 26.66 26.66 26.66 0 0 1-26.66-26.66 26.66 26.66 0 0 1 26.66-26.66 26.66 26.66 0 0 1 26.66 26.66z"/> <path d="m568.27 417.77a22.04 22.04 0 0 1-22.04 22.04 22.04 22.04 0 0 1-22.04-22.04 22.04 22.04 0 0 1 22.04-22.04 22.04 22.04 0 0 1 22.04 22.04z"/> </g> <g fill="#f9b996"> <path d="m520.4 540.55c-5.37 0.34-8.72 1.04-11.91 6.14a1.09 1.08-64.5 0 0 0.57 1.61l0.43 0.14a0.69 0.69 0 0 0 0.84-0.36c2.58-5.51 6.44-5.66 11.78-5.34a3.49 3.43-56.1 0 0 1.77-0.36c3.04-1.51 6.81-3.61 9.74-2.94a1.22 1.22 0 0 1 0.34 2.25l-7.14 4.08a8.52 8.4-85 0 0-2.4 2.04q-0.54 0.6-3.96 4.5-1.04 1.17-4.76 2.51a2.08 2.05 9 0 0-0.94 0.67q-0.91 1.14-1.3 3.07a0.73 0.73 0 0 1-0.95 0.54l-14.37-4.79a0.99 0.98 22.5 0 1-0.57-1.37c0.58-1.19 1.02-1.87 0.26-3.21q-1.73-3.04-1.13-7.24 1.03-7.17 0.63-16.48-0.19-4.27 0.34-6.8 0.13-0.64 0.42-0.87a0.74 0.72 66.8 0 1 1.17 0.49q0.83 5.41 1.63 11.24 0.13 0.98 0.87 1.52a0.97 0.94 29.6 0 0 1.44-0.37c1.19-2.76 1.31-8.79 2.08-16.73a2.25 2.23-12.5 0 1 1.11-1.72l0.31-0.17a0.43 0.43 0 0 1 0.65 0.35l0.89 18.06a0.8 0.8 0 0 0 1.59 0.1l3.59-19.69a1.22 1.22 0 0 1 1.11-1l0.48-0.04a1.18 1.17-0.4 0 1 1.27 1.24q-0.54 9.65-0.65 19.12-0.02 1.37 0.49 1.76a1.34 1.3-62.6 0 0 2.06-0.69q1.92-6.11 3.76-14.02a3.17 3.13 81.7 0 1 1.48-2.01l0.09-0.05a0.72 0.71 80.6 0 1 1.04 0.75l-3.73 23.69a0.46 0.45-86.8 0 1-0.42 0.38z"/> <path d="m630.38 563.83c-1.21-0.92-4.16-4.87-1.35-5.79q3.38-1.1 5.26 0.55c2.01 1.78-0.26 4.4-1.91 5.36a1.82 1.82 0 0 1-2-0.12z"/> </g> <g fill="#fbc217"> <path d="m632.63 508.38q0.04 0 0.1 0.03a0.24 0.07 17.5 0 1 0.16 0.1l1.44 3.83a1.44 1.42 79.6 0 0 1.34 0.94h3.8a0.27 0.27 0 0 1 0.17 0.47l-2.46 2.08a2.5 2.48 61.5 0 0-0.76 2.61l1.05 3.49a0.25 0.25 0 0 1-0.34 0.3q-0.47-0.21-3.45-2.39-0.62-0.45-1.09-0.46-0.48 0-1.1 0.45-3 2.15-3.47 2.36a0.25 0.25 0 0 1-0.34-0.3l1.08-3.48a2.5 2.48-61 0 0-0.74-2.62l-2.44-2.1a0.27 0.27 0 0 1 0.17-0.47l3.8 0.03a1.44 1.42-79.2 0 0 1.35-0.92l1.47-3.82a0.24 0.07-17 0 1 0.16-0.1q0.07-0.03 0.1-0.03z"/> <path d="m569.4 513.01q0.52-0.37 0.76-1.24 0.73-2.65 0.95-3.03a0.32 0.32 0 0 1 0.58 0.04l1.14 2.72a2.5 2.49-8.9 0 0 2.08 1.52l3.28 0.28a0.27 0.27 0 0 1 0.15 0.47l-2.87 2.52a1.59 1.59 0 0 0-0.5 1.58q0.94 3.85 0.96 3.94a0.15 0.02-60.2 0 1-0.05 0.11q-0.01 0.03-0.04 0.05-0.03 0.01-0.05 0.02a0.15 0.02-11.2 0 1-0.13 0.01q-0.08-0.05-3.43-2.17a1.59 1.59 0 0 0-1.65-0.03l-3.31 1.92a0.27 0.27 0 0 1-0.4-0.29l0.79-3.19a2.5 2.49-62.5 0 0-0.78-2.46l-2.21-1.95a0.32 0.32 0 0 1 0.14-0.56q0.44-0.09 3.18 0.06 0.89 0.05 1.41-0.32z"/> <path d="m593.94 513.11 4.48 0.26a0.31 0.31 0 0 1 0.18 0.54l-3.46 2.86a0.31 0.31 0 0 0-0.1 0.32l1.13 4.34a0.31 0.31 0 0 1-0.46 0.34l-3.79-2.41a0.31 0.31 0 0 0-0.33 0l-3.78 2.42a0.31 0.31 0 0 1-0.46-0.34l1.12-4.34a0.31 0.31 0 0 0-0.11-0.32l-3.47-2.84a0.31 0.31 0 0 1 0.18-0.55l4.48-0.28a0.31 0.31 0 0 0 0.27-0.19l1.63-4.18a0.31 0.31 0 0 1 0.58 0l1.64 4.17a0.31 0.31 0 0 0 0.27 0.2z"/> <path d="m618.58 513.37a0.36 0.35-64.9 0 1 0.23 0.64q-3.51 2.61-2.86 4.69 0.85 2.73 0.88 2.96a0.34 0.33 11.8 0 1-0.52 0.34l-2.73-1.89a2.42 2.41-42.6 0 0-2.57-0.1l-2.7 1.56a0.41 0.41 0 0 1-0.57-0.52c1.87-4.17 0.27-5.13-2.4-7.22a0.24 0.24 0 0 1 0.13-0.43l4.35-0.21a0.91 0.89-81.7 0 0 0.8-0.61l1.26-3.78a0.39 0.39 0 0 1 0.75 0.01l1.12 3.72a1.43 1.42-9.7 0 0 1.43 1.01l3.4-0.17z"/> <path d="m555.36 522q-0.03 0.02-0.05 0.02a0.15 0.02-11.1 0 1-0.13 0.01q-0.08-0.05-3.44-2.18a1.6 1.6 0 0 0-1.66-0.03l-3.32 1.92a0.27 0.27 0 0 1-0.4-0.3l0.79-3.2a2.51 2.5-62.4 0 0-0.77-2.47l-2.22-1.96a0.32 0.32 0 0 1 0.14-0.56q0.44-0.09 3.19 0.07 0.9 0.05 1.42-0.32 0.53-0.38 0.77-1.24 0.73-2.66 0.96-3.05a0.32 0.32 0 0 1 0.57 0.05l1.14 2.73a2.51 2.5-8.8 0 0 2.09 1.53l3.29 0.28a0.27 0.27 0 0 1 0.15 0.48l-2.89 2.52a1.6 1.6 0 0 0-0.5 1.58q0.93 3.87 0.95 3.96a0.15 0.02-60.1 0 1-0.04 0.12q-0.02 0.02-0.04 0.04z"/> </g> <g fill="#010101"> <path d="m606.11 325.9a16.5 16.32-81.9 0 1 13.832 18.635 16.5 16.32-81.9 0 1-18.482 14.036 16.5 16.32-81.9 0 1-13.832-18.635 16.5 16.32-81.9 0 1 18.482-14.036z"/> <path d="m560 417.91a13.88 13.88 0 0 1-13.88 13.88 13.88 13.88 0 0 1-13.88-13.88 13.88 13.88 0 0 1 13.88-13.88 13.88 13.88 0 0 1 13.88 13.88z"/> </g> <g fill="#bbe9f2"> <path d="m617.62 342.28a13.84 13.84 0 0 1-13.84 13.84 13.84 13.84 0 0 1-13.84-13.84 13.84 13.84 0 0 1 13.84-13.84 13.84 13.84 0 0 1 13.84 13.84z"/> <path d="m557.55 417.91a11.42 11.42 0 0 1-11.42 11.42 11.42 11.42 0 0 1-11.42-11.42 11.42 11.42 0 0 1 11.42-11.42 11.42 11.42 0 0 1 11.42 11.42z"/> </g> </svg>